<?xml version="1.0" encoding="utf-8"?><svg xmlns="http://www.w3.org/2000/svg" xmlns:xlink="http://www.w3.org/1999/xlink" width="375" height="812" preserveAspectRatio="xMidYMid" viewBox="0 0 375 812" style="z-index:1;margin-right:-1.6px;display:block;background-repeat-y:initial;background-repeat-x:initial;background-color:rgb(255, 255, 255);animation-play-state:paused" ><g transform="translate(187.5,406) scale(1,1) translate(-187.5,-406)" style="transform:matrix(1, 0, 0, 1, 0, 0);animation-play-state:paused" ><linearGradient id="lg-0.28786888366711283" x1="0" x2="1" y1="0" y2="0" style="animation-play-state:paused" ><stop stop-color="#93fb9d" offset="0" style="animation-play-state:paused" ></stop>

  
<stop stop-color="#09c7fb" offset="1" style="animation-play-state:paused" ></stop></linearGradient>
<path d="M 0 0 L 0 472.878 Q 93.75 122.746 187.5 83.3994 T 375 -28.4461 L 375 0 Z" fill="url(#lg-0.28786888366711283)" opacity="0.4" style="opacity:0.4;animation-play-state:paused" ></path>
<path d="M 0 0 L 0 257.824 Q 93.75 19.2739 187.5 -8.07743 T 375 -106.798 L 375 0 Z" fill="url(#lg-0.28786888366711283)" opacity="0.4" style="opacity:0.4;animation-play-state:paused" ></path>
<path d="M 0 0 L 0 223.485 Q 93.75 107.113 187.5 71.1762 T 375 -344.333 L 375 0 Z" fill="url(#lg-0.28786888366711283)" opacity="0.4" style="opacity:0.4;animation-play-state:paused" ></path>
<path d="M 0 0 L 0 372.93 Q 93.75 181.039 187.5 162.394 T 375 -58.8262 L 375 0 Z" fill="url(#lg-0.28786888366711283)" opacity="0.4" style="opacity:0.4;animation-play-state:paused" ></path>
<path d="M 0 0 L 0 333.441 Q 93.75 132.824 187.5 113.606 T 375 -308.425 L 375 0 Z" fill="url(#lg-0.28786888366711283)" opacity="0.4" style="opacity:0.4;animation-play-state:paused" ></path></g></svg>