<svg width="272" height="241" viewBox="0 0 272 241" fill="none" xmlns="http://www.w3.org/2000/svg">
<path d="M233.728 125.311C182.919 99.0425 100.815 99.0425 50.3353 125.311C-0.144692 151.581 0.121768 194.172 50.9022 220.441C101.683 246.711 183.82 246.716 234.3 220.441C284.78 194.167 284.542 151.581 233.728 125.311Z" fill="#F5F5F5"/>
<path d="M53.6689 171.65L96.087 149.732L147.616 176.362C147.923 176.521 148.178 176.75 148.355 177.025C148.533 177.301 148.626 177.613 148.626 177.931C148.626 178.249 148.533 178.561 148.355 178.836C148.178 179.112 147.923 179.34 147.616 179.5L133.698 186.689C142.27 185.77 151.522 187.034 158.149 190.481C168.621 195.929 168.564 204.763 158.03 210.216C147.497 215.669 130.46 215.664 119.989 210.216C113.356 206.764 110.952 201.956 112.761 197.523L110.226 198.828C108.691 199.621 106.95 200.039 105.178 200.039C103.406 200.039 101.664 199.621 100.129 198.828L53.6689 174.788C53.3616 174.629 53.1066 174.4 52.9292 174.125C52.7519 173.849 52.6586 173.537 52.6586 173.219C52.6586 172.901 52.7519 172.589 52.9292 172.314C53.1066 172.038 53.3616 171.81 53.6689 171.65Z" fill="#E6E6E6"/>
<path d="M52.3763 211.333L80.6664 196.706C80.8572 196.608 81.0156 196.466 81.1258 196.295C81.2359 196.124 81.2939 195.931 81.2939 195.734C81.2939 195.537 81.2359 195.343 81.1258 195.172C81.0156 195.001 80.8572 194.86 80.6664 194.761L55.7212 181.784C55.5311 181.685 55.3149 181.632 55.0948 181.632C54.8746 181.632 54.6584 181.685 54.4683 181.784L25.5432 196.736C25.3525 196.835 25.194 196.976 25.0839 197.147C24.9737 197.318 24.9157 197.512 24.9157 197.709C24.9157 197.906 24.9737 198.099 25.0839 198.27C25.194 198.441 25.3525 198.583 25.5432 198.681L49.8478 211.328C50.2311 211.529 50.6671 211.635 51.1113 211.636C51.5555 211.637 51.992 211.533 52.3763 211.333Z" fill="#E6E6E6"/>
<path d="M252.482 189.766C253.831 190.466 253.837 191.598 252.482 192.304L246.966 195.152C246.21 195.498 245.373 195.678 244.525 195.678C243.677 195.678 242.84 195.498 242.084 195.152L181.558 163.832C180.203 163.136 180.198 161.999 181.558 161.293L187.075 158.44C187.83 158.094 188.667 157.914 189.515 157.914C190.364 157.914 191.2 158.094 191.956 158.44L252.482 189.766Z" fill="#E6E6E6"/>
<path d="M235.497 194.244C236.852 194.944 236.857 196.076 235.497 196.782L229.98 199.635C229.225 199.981 228.388 200.161 227.54 200.161C226.691 200.161 225.855 199.981 225.099 199.635L173.394 172.889C172.045 172.194 172.034 171.056 173.394 170.351L178.911 167.497C179.666 167.152 180.503 166.972 181.351 166.972C182.2 166.972 183.036 167.152 183.792 167.497L235.497 194.244Z" fill="#E6E6E6"/>
<path d="M60.0413 50.556L60.0809 64.0764L61.9121 65.0309L61.8611 49.6116L60.0413 50.556Z" fill="#F0F0F0"/>
<path d="M40.3289 74.2915L40.3346 76.1853L61.9122 65.0308L60.081 64.0763L40.3289 74.2915Z" fill="#F5F5F5"/>
<path d="M64.0949 46.1998L38.0669 59.644L38.1293 79.592L64.1289 66.1478L64.0949 46.1998ZM40.3346 76.1853V74.2915L40.2836 60.7711L60.0413 50.556L61.8612 49.637L61.9122 65.0562L40.3346 76.1853Z" fill="#E0E0E0"/>
<path d="M64.0665 46.1998L62.2353 45.2453L36.2357 58.6895L38.0669 59.6389L64.0665 46.1998Z" fill="#F5F5F5"/>
<path d="M36.2357 58.6895L36.298 78.6528L38.1292 79.6073L38.0669 59.6389L36.2357 58.6895Z" fill="#F0F0F0"/>
<path d="M60.0242 80.9019L60.0696 94.4223L61.9008 95.3717L61.8498 79.9576L60.0242 80.9019Z" fill="#F0F0F0"/>
<path d="M40.3176 104.632L40.3232 106.531L61.9008 95.3717L60.0696 94.4223L40.3176 104.632Z" fill="#F5F5F5"/>
<path d="M64.0552 76.5457L38.0555 89.9849L38.1178 109.948L64.0948 96.5039L64.0552 76.5457ZM40.3232 106.531V104.632L40.2835 91.112L60.0356 80.9019L61.8611 79.9576L61.9121 95.3717L40.3232 106.531Z" fill="#E0E0E0"/>
<path d="M64.0551 76.5407L62.2239 75.5912L36.2242 89.0304L38.0554 89.9849L64.0551 76.5407Z" fill="#F5F5F5"/>
<path d="M36.2242 89.0304L36.2866 108.994L38.1178 109.948L38.0554 89.9849L36.2242 89.0304Z" fill="#F0F0F0"/>
<path d="M53.7653 55.6889L59.1512 59.4917L59.1625 63.198L41.2417 72.4638L41.2303 68.7524L44.649 62.6801L47.7161 64.8125L46.6276 67.8283L48.2037 65.1476L53.7653 55.6889Z" fill="#E0E0E0"/>
<path d="M47.8749 57.5624C48.7196 57.1258 49.4056 57.4761 49.4113 58.3443C49.3825 58.8175 49.2294 59.278 48.9644 59.6882C48.6994 60.0985 48.33 60.4469 47.8862 60.7051C47.0415 61.1418 46.3555 60.7915 46.3555 59.9233C46.3832 59.4504 46.5352 58.99 46.7993 58.5798C47.0633 58.1695 47.4318 57.8209 47.8749 57.5624Z" fill="#E0E0E0"/>
<path d="M53.7483 86.0349L59.1342 89.8326L59.1512 93.544L41.2303 102.81L41.219 99.0983L44.6319 93.021L47.6991 95.1534L46.6162 98.1692L48.1866 95.4936L53.7483 86.0349Z" fill="#E0E0E0"/>
<path d="M47.8634 87.9033C48.7082 87.4666 49.3942 87.817 49.3942 88.6852C49.3678 89.1583 49.2164 89.6191 48.9522 90.0296C48.688 90.44 48.3188 90.7884 47.8748 91.046C47.03 91.4826 46.3441 91.1323 46.3441 90.2641C46.3704 89.791 46.5219 89.3302 46.786 88.9197C47.0502 88.5093 47.4195 88.1609 47.8634 87.9033Z" fill="#E0E0E0"/>
<path d="M253.406 67.346C252.919 66.4468 252.141 65.7 251.172 65.2034L192.971 35.553C192.702 35.461 192.419 35.4095 192.132 35.4007C189.138 35.35 186.128 37.8733 185.703 39.2035C185.606 39.3716 185.556 39.5578 185.555 39.7467V152.433C185.555 153.313 185.815 154.178 186.309 154.938C186.803 155.699 187.513 156.329 188.367 156.764L246.569 186.465C246.64 186.497 246.714 186.524 246.79 186.547C250.265 187.867 253.962 185.125 253.962 182.251V69.5393C253.966 68.7798 253.776 68.0295 253.406 67.346Z" fill="#263238"/>
<path d="M185.708 39.2086C186.134 37.8784 189.144 35.3551 192.137 35.4058C192.425 35.4146 192.708 35.4661 192.976 35.5581L251.184 65.2035C252.035 65.6434 252.744 66.2739 253.241 67.0331C253.738 67.7924 254.006 68.6543 254.018 69.5342V182.246C254.018 185.12 250.322 187.862 246.847 186.542C246.771 186.519 246.697 186.492 246.626 186.46L188.367 156.764C187.514 156.329 186.805 155.698 186.312 154.938C185.819 154.177 185.56 153.313 185.561 152.433V39.7518C185.561 39.5629 185.612 39.3767 185.708 39.2086Z" fill="#455A64"/>
<path d="M245.866 81.4502C245.864 81.0102 245.734 80.5782 245.487 80.1976C245.24 79.8171 244.886 79.5014 244.46 79.2823L190.42 51.7541C190.208 51.6467 189.969 51.5907 189.726 51.5919C189.483 51.593 189.245 51.6512 189.035 51.7607C188.825 51.8701 188.651 52.027 188.529 52.2156C188.408 52.4042 188.345 52.618 188.345 52.8356V143.741C188.345 144.181 188.476 144.612 188.722 144.992C188.969 145.372 189.324 145.687 189.751 145.904L243.814 173.483C244.026 173.59 244.265 173.646 244.509 173.645C244.753 173.643 244.992 173.585 245.202 173.475C245.413 173.365 245.587 173.207 245.709 173.018C245.83 172.829 245.894 172.615 245.894 172.397L245.866 81.4502Z" fill="#037ADE"/>
<path opacity="0.2" d="M245.866 81.4502C245.864 81.0102 245.734 80.5782 245.487 80.1976C245.24 79.8171 244.886 79.5014 244.46 79.2823L190.42 51.7541C190.208 51.6467 189.969 51.5907 189.726 51.5919C189.483 51.593 189.245 51.6512 189.035 51.7607C188.825 51.8701 188.651 52.027 188.529 52.2156C188.408 52.4042 188.345 52.618 188.345 52.8356V143.741C188.345 144.181 188.476 144.612 188.722 144.992C188.969 145.372 189.324 145.687 189.751 145.904L243.814 173.483C244.026 173.59 244.265 173.646 244.509 173.645C244.753 173.643 244.992 173.585 245.202 173.475C245.413 173.365 245.587 173.207 245.709 173.018C245.83 172.829 245.894 172.615 245.894 172.397L245.866 81.4502Z" fill="black"/>
<path opacity="0.3" d="M253.984 69.5342V182.246C253.984 185.12 250.288 187.862 246.813 186.542C247.022 186.609 247.246 186.63 247.466 186.604C247.686 186.578 247.896 186.505 248.078 186.391C248.26 186.277 248.409 186.126 248.513 185.95C248.616 185.774 248.671 185.578 248.672 185.379V72.6668C248.668 71.6865 248.341 70.7291 247.731 69.915L253.429 67.3764C253.793 68.0492 253.983 68.7867 253.984 69.5342Z" fill="black"/>
<path opacity="0.1" d="M192.132 35.4211C192.419 35.4298 192.702 35.4813 192.971 35.5734L251.184 65.2034C252.152 65.7001 252.931 66.4468 253.417 67.346L247.72 69.8846C247.242 69.2335 246.601 68.6911 245.849 68.3005L187.642 38.6653C187.476 38.5818 187.293 38.5296 187.105 38.5118C186.916 38.494 186.725 38.5111 186.544 38.5621C186.362 38.613 186.195 38.6966 186.051 38.8078C185.907 38.919 185.791 39.0554 185.708 39.2086C186.128 37.8733 189.138 35.35 192.132 35.4211Z" fill="white"/>
<path d="M209.933 57.2831C209.525 57.0699 209.185 57.2323 209.185 57.6537C209.199 57.8854 209.273 58.1108 209.402 58.3119C209.531 58.5131 209.711 58.6841 209.928 58.8113L221.346 64.7109C221.754 64.9242 222.083 64.7465 222.083 64.3251C222.071 64.0971 221.998 63.8751 221.871 63.6773C221.744 63.4795 221.566 63.3117 221.352 63.1878L209.933 57.2831Z" fill="#263238"/>
<path d="M224.283 64.7008C223.874 64.4926 223.54 64.6602 223.54 65.0816C223.555 65.311 223.629 65.5342 223.757 65.7333C223.885 65.9325 224.063 66.1022 224.277 66.229C224.685 66.4422 225.025 66.2645 225.025 65.8482C225.01 65.6183 224.935 65.3947 224.806 65.1954C224.677 64.9961 224.498 64.8267 224.283 64.7008Z" fill="#263238"/>
<path d="M216.975 56.4251C216.158 56.0037 215.495 56.3388 215.495 57.1765C215.52 57.6363 215.667 58.0843 215.922 58.4839C216.177 58.8836 216.534 59.2236 216.963 59.4764C217.78 59.8978 218.454 59.5526 218.46 58.7098C218.43 58.2514 218.28 57.8057 218.022 57.4089C217.764 57.012 217.405 56.675 216.975 56.4251Z" fill="#263238"/>
<path d="M216.969 162.552C215.308 161.694 213.964 162.374 213.959 164.075C214.011 165.01 214.309 165.921 214.828 166.733C215.347 167.546 216.073 168.237 216.946 168.751C218.613 169.609 219.991 168.909 219.997 167.193C219.934 166.261 219.627 165.355 219.101 164.549C218.575 163.743 217.845 163.059 216.969 162.552Z" fill="#263238"/>
<path d="M237.01 85.5526C236.94 85.0441 236.776 84.5498 236.523 84.0903C236.412 83.8895 236.285 83.6961 236.143 83.5115C235.716 82.9489 235.152 82.4802 234.493 82.1407L181.666 55.232L181.587 55.2015C181.516 55.1804 181.444 55.1634 181.371 55.1508C181.216 55.1228 181.059 55.1058 180.901 55.1C180.042 55.0948 179.194 55.2686 178.423 55.6077C177.67 55.9403 176.976 56.3715 176.365 56.8871L176.042 57.1765C175.612 57.5563 175.279 58.0154 175.067 58.522C175.025 58.5965 174.993 58.6748 174.97 58.7555C174.943 58.8395 174.929 58.9268 174.931 59.0144V161.334C174.933 162.132 175.17 162.915 175.618 163.605C176.066 164.295 176.709 164.867 177.482 165.263L230.309 192.223C230.375 192.251 230.443 192.275 230.513 192.294C233.665 193.492 237.022 191.004 237.022 188.395V86.0755C237.029 85.9011 237.025 85.7265 237.01 85.5526Z" fill="#037ADE"/>
<path d="M175.056 58.5474C175.441 57.3441 178.174 55.0492 180.889 55.1C181.151 55.1055 181.41 55.1501 181.655 55.232L234.482 82.1407C235.36 82.5955 236.066 83.2743 236.511 84.0904C236.853 84.7075 237.031 85.3867 237.033 86.0755V188.4C237.033 191.009 233.677 193.477 230.525 192.299C230.455 192.28 230.387 192.256 230.32 192.228L177.482 165.253C176.708 164.858 176.064 164.286 175.616 163.596C175.168 162.906 174.932 162.122 174.931 161.324V59.0398C174.93 58.8693 174.973 58.7009 175.056 58.5474Z" fill="#037ADE"/>
<path opacity="0.2" d="M237.01 86.0755V188.4C237.01 191.009 233.654 193.477 230.502 192.299C230.692 192.364 230.898 192.387 231.1 192.365C231.303 192.343 231.496 192.277 231.664 192.173C231.831 192.069 231.968 191.93 232.062 191.768C232.156 191.606 232.204 191.426 232.203 191.243V88.9035C232.2 88.014 231.904 87.1449 231.352 86.4055L236.523 84.0903C236.853 84.71 237.019 85.3891 237.01 86.0755Z" fill="white"/>
<path opacity="0.4" d="M180.884 55.0949C181.145 55.1004 181.404 55.145 181.649 55.2269L234.476 82.1356C235.354 82.5904 236.061 83.2692 236.506 84.0853L231.341 86.4055C230.908 85.8133 230.326 85.321 229.64 84.9687L176.813 58.0599C176.662 57.984 176.496 57.9368 176.324 57.9214C176.151 57.906 175.978 57.9227 175.813 57.9704C175.648 58.0181 175.497 58.0957 175.367 58.1985C175.238 58.3013 175.134 58.427 175.061 58.5676C175.435 57.339 178.168 55.0441 180.884 55.0949Z" fill="white"/>
<path opacity="0.3" d="M175.056 58.5474C175.441 57.3441 178.174 55.0492 180.889 55.1C181.151 55.1055 181.41 55.1501 181.655 55.232L234.482 82.1407C235.36 82.5955 236.066 83.2743 236.511 84.0904C236.853 84.7075 237.031 85.3867 237.033 86.0755V188.4C237.033 191.009 233.677 193.477 230.525 192.299C230.455 192.28 230.387 192.256 230.32 192.228L177.482 165.253C176.708 164.858 176.064 164.286 175.616 163.596C175.168 162.906 174.932 162.122 174.931 161.324V59.0398C174.93 58.8693 174.973 58.7009 175.056 58.5474Z" fill="white"/>
<path d="M180.249 64.5993L180.838 64.909L180.85 62.6293L180.254 62.3247L180.249 64.5993Z" fill="white"/>
<path d="M179.234 64.0763L179.823 64.3809L179.829 62.538L179.24 62.2333L179.234 64.0763Z" fill="white"/>
<path d="M178.213 63.5483L178.803 63.8529L178.809 62.4872L178.219 62.1825L178.213 63.5483Z" fill="white"/>
<path d="M177.199 63.0254L177.788 63.33V62.4059L177.199 62.1013V63.0254Z" fill="white"/>
<path d="M182.448 65.7416L186.071 67.6151L186.077 65.701L182.454 63.8275L182.448 65.7416Z" fill="white"/>
<path d="M187.874 68.5442L189.682 69.4784L189.688 67.5694L187.88 66.6352L187.874 68.5442Z" fill="white"/>
<path d="M225.252 87.6291L225.258 86.0907L227.202 87.096L225.258 86.0907L225.252 87.6291Z" fill="white"/>
<path d="M225.252 87.6291L227.197 88.6343L227.202 87.096L225.258 86.0907L225.252 87.6291Z" fill="#037ADE"/>
<path d="M228.574 88.0353V87.4361L224.901 85.5373V87.8119L228.574 89.7107V89.1116L229.045 89.3553V88.2789L228.574 88.0353ZM227.197 88.6343L225.252 87.6189V86.0958L227.197 87.1112V88.6343Z" fill="white"/>
<path d="M219.639 84.9331L223.262 86.8015L223.268 84.8925L219.645 83.019L219.639 84.9331Z" fill="white"/>
<path d="M202.354 75.8806L205.976 77.7541L205.982 75.8451L202.359 73.9716L202.354 75.8806Z" fill="white"/>
<path d="M222.542 94.0669L169.313 66.5438C169.16 66.4487 168.983 66.3887 168.798 66.3693C168.613 66.3498 168.426 66.3714 168.252 66.4321H168.224L167.09 67.0109L167.787 67.6303L167.748 81.2421V81.5619V85.2327C167.777 85.7106 167.931 86.1756 168.198 86.5902C168.465 87.0048 168.837 87.3572 169.284 87.6189L220.439 114.116L222.406 115.853L223.506 115.289C223.546 115.273 223.584 115.252 223.619 115.228H223.67C223.794 115.125 223.891 114.997 223.953 114.856C224.014 114.715 224.04 114.562 224.028 114.411V111.05V110.42L224.073 96.4938C224.052 96.0093 223.902 95.5364 223.636 95.1143C223.369 94.6923 222.995 94.3332 222.542 94.0669Z" fill="#037ADE"/>
<path opacity="0.2" d="M222.542 94.0669L169.313 66.5438C169.16 66.4487 168.983 66.3887 168.798 66.3693C168.613 66.3498 168.426 66.3714 168.252 66.4321H168.224L167.09 67.0109L167.787 67.6303L167.748 81.2421V81.5619V85.2327C167.777 85.7106 167.931 86.1756 168.198 86.5902C168.465 87.0048 168.837 87.3572 169.284 87.6189L220.439 114.116L222.406 115.853L223.506 115.289C223.546 115.273 223.584 115.252 223.619 115.228H223.67C223.794 115.125 223.891 114.997 223.953 114.856C224.014 114.715 224.04 114.562 224.028 114.411V111.05V110.42L224.073 96.4938C224.052 96.0093 223.902 95.5364 223.636 95.1143C223.369 94.6923 222.995 94.3332 222.542 94.0669Z" fill="black"/>
<path d="M221.403 94.6406C221.85 94.9023 222.222 95.2547 222.489 95.6693C222.756 96.0839 222.91 96.549 222.939 97.0268L222.894 110.948L166.58 81.8361V82.4707L222.894 111.578V114.934C222.894 115.812 222.196 116.168 221.346 115.726L168.105 88.2231C167.658 87.9619 167.287 87.6103 167.02 87.1966C166.753 86.783 166.598 86.3189 166.569 85.8419L166.625 67.9248C166.625 67.0515 167.317 66.6961 168.173 67.1328L221.403 94.6406Z" fill="#037ADE"/>
<path d="M222.894 110.948V111.583L166.58 82.4707V81.8361L222.894 110.948Z" fill="#037ADE"/>
<g opacity="0.2">
<path d="M222.894 110.948V111.583L166.58 82.4707V81.8361L222.894 110.948Z" fill="white"/>
</g>
<g opacity="0.6">
<path d="M195.386 98.9561L195.38 100.51L168.354 86.5324L168.36 84.9839L195.386 98.9561Z" fill="white"/>
</g>
<path d="M178.383 74.3473C178.652 74.5044 178.875 74.716 179.034 74.9647C179.194 75.2135 179.285 75.4926 179.302 75.7791V85.0905C179.302 85.5982 178.888 85.8267 178.372 85.5627L169.33 80.8816C169.06 80.7262 168.836 80.5159 168.676 80.2679C168.515 80.0198 168.422 79.7412 168.405 79.4549L168.434 70.1435C168.434 69.6358 168.853 69.4022 169.364 69.6662L178.383 74.3473Z" fill="white"/>
<g opacity="0.6">
<path d="M211.43 92.4219L211.424 94.4578L182.789 79.6529L182.794 77.617L211.43 92.4219Z" fill="white"/>
</g>
<g opacity="0.6">
<path d="M198.759 93.0261L198.753 95.062L182.766 86.7964L182.772 84.7605L198.759 93.0261Z" fill="white"/>
</g>
<g opacity="0.6">
<path d="M211.419 95.9962L211.413 98.027L182.777 83.2221L182.783 81.1913L211.419 95.9962Z" fill="white"/>
</g>
<g opacity="0.5">
<path d="M220.762 96.3414L219.9 97.0319L220.915 98.9155L220.064 98.4738L219.452 97.2858L218.891 97.8696L218.035 97.4229L219.072 96.6054L218.245 95.0417L219.084 95.4732L219.526 96.3465L219.911 95.9048L220.762 96.3414Z" fill="white"/>
</g>
<path d="M222.542 119.427L169.313 91.904C169.159 91.8097 168.982 91.7507 168.797 91.7321C168.612 91.7135 168.425 91.7359 168.252 91.7974H168.224L167.09 92.3762L167.787 92.9956L167.748 106.607V106.927V110.598C167.777 111.075 167.932 111.539 168.199 111.953C168.466 112.366 168.838 112.718 169.284 112.979L220.478 139.451L222.446 141.188L223.546 140.619C223.586 140.604 223.624 140.586 223.659 140.563L223.71 140.538C223.834 140.434 223.931 140.307 223.992 140.165C224.054 140.024 224.08 139.872 224.067 139.72V136.359V135.725L224.113 121.803C224.078 121.324 223.918 120.86 223.645 120.447C223.372 120.034 222.994 119.684 222.542 119.427Z" fill="#037ADE"/>
<path opacity="0.2" d="M222.542 119.427L169.313 91.904C169.159 91.8097 168.982 91.7507 168.797 91.7321C168.612 91.7135 168.425 91.7359 168.252 91.7974H168.224L167.09 92.3762L167.787 92.9956L167.748 106.607V106.927V110.598C167.777 111.075 167.932 111.539 168.199 111.953C168.466 112.366 168.838 112.718 169.284 112.979L220.478 139.451L222.446 141.188L223.546 140.619C223.586 140.604 223.624 140.586 223.659 140.563L223.71 140.538C223.834 140.434 223.931 140.307 223.992 140.165C224.054 140.024 224.08 139.872 224.067 139.72V136.359V135.725L224.113 121.803C224.078 121.324 223.918 120.86 223.645 120.447C223.372 120.034 222.994 119.684 222.542 119.427Z" fill="black"/>
<path d="M221.403 120.006C221.85 120.268 222.222 120.62 222.489 121.035C222.756 121.449 222.91 121.914 222.939 122.392L222.894 136.314L166.58 107.201V107.831L222.894 136.963V140.319C222.894 141.198 222.196 141.553 221.346 141.111L168.116 113.588C167.67 113.327 167.298 112.976 167.031 112.562C166.764 112.148 166.609 111.684 166.58 111.207L166.637 93.2901C166.637 92.4117 167.328 92.0563 168.184 92.4981L221.403 120.006Z" fill="#037ADE"/>
<path d="M222.894 136.314V136.948L166.58 107.831V107.201L222.894 136.314Z" fill="#037ADE"/>
<g opacity="0.2">
<path d="M222.894 136.314V136.948L166.58 107.831V107.201L222.894 136.314Z" fill="white"/>
</g>
<path d="M178.383 99.7126C178.652 99.8697 178.875 100.081 179.034 100.33C179.194 100.579 179.285 100.858 179.302 101.144V110.451C179.302 110.958 178.888 111.187 178.372 110.928L169.33 106.247C169.06 106.091 168.835 105.88 168.675 105.631C168.514 105.382 168.422 105.102 168.405 104.815L168.434 95.5088C168.434 95.0011 168.853 94.7675 169.364 95.0315L178.383 99.7126Z" fill="white"/>
<g opacity="0.6">
<path d="M211.43 117.787L211.424 119.823L182.789 105.013L182.794 102.977L211.43 117.787Z" fill="white"/>
</g>
<g opacity="0.5">
<path d="M220.762 121.707L219.9 122.397L220.915 124.276L220.064 123.839L219.452 122.651L218.891 123.23L218.035 122.788L219.072 121.971L218.245 120.407L219.084 120.839L219.526 121.712L219.911 121.27L220.762 121.707Z" fill="white"/>
</g>
<path opacity="0.6" d="M168.36 110.349L168.354 111.898L184.064 120.021V118.468L168.36 110.349Z" fill="white"/>
<path opacity="0.6" d="M182.783 106.552L182.777 108.587L196.435 115.645V113.609L182.783 106.552Z" fill="white"/>
<path d="M222.542 170.508L169.313 142.985C169.16 142.89 168.983 142.83 168.798 142.81C168.613 142.791 168.426 142.812 168.252 142.873H168.224L167.09 143.452L167.787 144.071L167.748 157.683V158.003V161.674C167.777 162.152 167.931 162.617 168.198 163.031C168.465 163.446 168.837 163.798 169.284 164.06L220.478 190.527L222.446 192.263L223.546 191.7L223.659 191.644L223.71 191.614C223.834 191.51 223.931 191.383 223.992 191.241C224.054 191.1 224.08 190.948 224.067 190.796V187.44V186.806L224.113 172.879C224.077 172.401 223.917 171.937 223.644 171.525C223.371 171.113 222.994 170.765 222.542 170.508Z" fill="#037ADE"/>
<path opacity="0.2" d="M222.542 170.508L169.313 142.985C169.16 142.89 168.983 142.83 168.798 142.81C168.613 142.791 168.426 142.812 168.252 142.873H168.224L167.09 143.452L167.787 144.071L167.748 157.683V158.003V161.674C167.777 162.152 167.931 162.617 168.198 163.031C168.465 163.446 168.837 163.798 169.284 164.06L220.478 190.527L222.446 192.263L223.546 191.7L223.659 191.644L223.71 191.614C223.834 191.51 223.931 191.383 223.992 191.241C224.054 191.1 224.08 190.948 224.067 190.796V187.44V186.806L224.113 172.879C224.077 172.401 223.917 171.937 223.644 171.525C223.371 171.113 222.994 170.765 222.542 170.508Z" fill="black"/>
<path d="M221.403 171.087C221.849 171.348 222.221 171.7 222.488 172.113C222.755 172.527 222.909 172.991 222.939 173.468L222.894 187.395L166.58 158.287V158.922L222.894 188.034V191.395C222.894 192.269 222.196 192.624 221.346 192.187L168.116 164.664C167.669 164.403 167.297 164.05 167.03 163.636C166.763 163.221 166.609 162.756 166.58 162.278L166.637 144.366C166.637 143.488 167.328 143.132 168.184 143.574L221.403 171.087Z" fill="#037ADE"/>
<path d="M222.894 187.395V188.024L166.58 158.912V158.277L222.894 187.395Z" fill="#037ADE"/>
<g opacity="0.2">
<path d="M222.894 187.395V188.024L166.58 158.912V158.277L222.894 187.395Z" fill="white"/>
</g>
<path d="M178.383 150.788C178.651 150.946 178.874 151.157 179.034 151.406C179.193 151.655 179.285 151.934 179.302 152.22V161.532C179.302 162.039 178.888 162.268 178.372 162.004L169.33 157.328C169.06 157.171 168.836 156.96 168.676 156.711C168.515 156.462 168.422 156.183 168.405 155.896L168.411 146.61C168.411 146.102 168.831 145.874 169.341 146.138L178.383 150.788Z" fill="white"/>
<g opacity="0.6">
<path d="M211.43 168.863L211.424 170.899L182.789 156.094L182.794 154.058L211.43 168.863Z" fill="white"/>
</g>
<g opacity="0.5">
<path d="M220.762 172.788L219.9 173.478L220.915 175.357L220.064 174.92L219.452 173.732L218.891 174.311L218.035 173.869L219.072 173.047L218.245 171.483L219.084 171.919L219.526 172.793L219.911 172.346L220.762 172.788Z" fill="white"/>
</g>
<path opacity="0.6" d="M168.36 161.425L168.354 162.979L184.064 171.097V169.543L168.36 161.425Z" fill="white"/>
<path opacity="0.6" d="M182.783 157.632L182.777 159.663L188.951 162.852V160.816L182.783 157.632Z" fill="white"/>
<path d="M222.542 144.792L169.313 117.269C169.16 117.172 168.983 117.112 168.798 117.093C168.612 117.075 168.425 117.098 168.252 117.163H168.224L167.09 117.747L167.787 118.361L167.748 131.978V132.298V135.968C167.777 136.445 167.932 136.909 168.199 137.323C168.466 137.737 168.838 138.088 169.284 138.35L220.478 164.822L222.446 166.558L223.546 165.989L223.659 165.934L223.71 165.908C223.835 165.804 223.932 165.676 223.994 165.533C224.055 165.391 224.081 165.238 224.067 165.086V161.73V161.095L224.113 147.174C224.079 146.694 223.919 146.228 223.646 145.814C223.374 145.4 222.995 145.05 222.542 144.792Z" fill="#037ADE"/>
<path opacity="0.2" d="M222.542 144.792L169.313 117.269C169.16 117.172 168.983 117.112 168.798 117.093C168.612 117.075 168.425 117.098 168.252 117.163H168.224L167.09 117.747L167.787 118.361L167.748 131.978V132.298V135.968C167.777 136.445 167.932 136.909 168.199 137.323C168.466 137.737 168.838 138.088 169.284 138.35L220.478 164.822L222.446 166.558L223.546 165.989L223.659 165.934L223.71 165.908C223.835 165.804 223.932 165.676 223.994 165.533C224.055 165.391 224.081 165.238 224.067 165.086V161.73V161.095L224.113 147.174C224.079 146.694 223.919 146.228 223.646 145.814C223.374 145.4 222.995 145.05 222.542 144.792Z" fill="black"/>
<path d="M221.403 145.371C221.849 145.632 222.221 145.984 222.488 146.398C222.755 146.811 222.909 147.275 222.939 147.752L222.894 161.679L166.58 132.562V133.196L222.894 162.314V165.67C222.894 166.548 222.196 166.898 221.346 166.462L168.116 138.938C167.67 138.677 167.298 138.326 167.031 137.912C166.764 137.498 166.609 137.034 166.58 136.557L166.637 118.64C166.637 117.762 167.328 117.406 168.184 117.848L221.403 145.371Z" fill="#037ADE"/>
<path d="M222.894 161.679V162.314L166.58 133.196V132.562L222.894 161.679Z" fill="#037ADE"/>
<g opacity="0.2">
<path d="M222.894 161.679V162.314L166.58 133.196V132.562L222.894 161.679Z" fill="white"/>
</g>
<g opacity="0.6">
<path d="M188.458 146.158L188.452 147.707L168.354 137.263L168.36 135.715L188.458 146.158Z" fill="white"/>
</g>
<path d="M178.383 125.073C178.651 125.23 178.874 125.442 179.034 125.691C179.193 125.939 179.285 126.218 179.302 126.505V135.816C179.302 136.324 178.888 136.552 178.372 136.288L169.33 131.612C169.06 131.456 168.835 131.245 168.675 130.996C168.514 130.747 168.422 130.468 168.405 130.18L168.434 120.874C168.434 120.366 168.853 120.133 169.364 120.397L178.383 125.073Z" fill="white"/>
<g opacity="0.6">
<path d="M211.43 143.147L211.424 145.183L182.789 130.378L182.794 128.343L211.43 143.147Z" fill="white"/>
</g>
<g opacity="0.6">
<path d="M206.379 147.737L206.373 149.773L182.766 137.527L182.772 135.491L206.379 147.737Z" fill="white"/>
</g>
<g opacity="0.6">
<path d="M211.419 146.722L211.413 148.758L182.777 133.953L182.783 131.917L211.419 146.722Z" fill="white"/>
</g>
<g opacity="0.5">
<path d="M220.762 147.072L219.9 147.763L220.915 149.641L220.064 149.204L219.452 148.016L218.891 148.595L218.035 148.153L219.072 147.336L218.245 145.772L219.084 146.204L219.526 147.077L219.911 146.635L220.762 147.072Z" fill="white"/>
</g>
<path d="M161.857 66.8637L152.367 61.9896C151.539 61.5632 149.572 62.1419 149.572 63.3401C149.572 63.2431 149.6 63.1477 149.654 63.0635C149.707 62.9793 149.785 62.9093 149.879 62.8604C149.972 62.8116 150.079 62.7856 150.187 62.7851C150.295 62.7847 150.402 62.8097 150.496 62.8578L159.981 67.7319C160.293 67.8923 160.543 68.1329 160.701 68.4223L162.543 67.4831C162.381 67.2252 162.144 67.0113 161.857 66.8637Z" fill="#037ADE"/>
<path d="M160.701 68.4223C160.836 68.6509 160.908 68.9051 160.91 69.1636V78.9168C160.91 79.0134 160.881 79.1081 160.827 79.1916C160.772 79.2751 160.695 79.3444 160.601 79.3927C160.508 79.4409 160.402 79.4665 160.294 79.4667C160.186 79.4669 160.08 79.4419 159.986 79.394C160.26 79.547 160.574 79.6326 160.896 79.6422C161.219 79.6517 161.538 79.5848 161.822 79.4483C162.106 79.3117 162.345 79.1104 162.515 78.8646C162.684 78.6188 162.778 78.3373 162.787 78.0486V68.3005C162.784 68.0156 162.7 67.736 162.543 67.4882L160.701 68.4223Z" fill="#037ADE"/>
<path opacity="0.4" d="M161.857 66.8637L152.367 61.9896C151.539 61.5632 149.572 62.1419 149.572 63.3401C149.572 63.2431 149.6 63.1477 149.654 63.0635C149.707 62.9793 149.785 62.9093 149.879 62.8604C149.972 62.8116 150.079 62.7856 150.187 62.7851C150.295 62.7847 150.402 62.8097 150.496 62.8578L159.981 67.7319C160.293 67.8923 160.543 68.1329 160.701 68.4223L162.543 67.4831C162.381 67.2252 162.144 67.0113 161.857 66.8637Z" fill="white"/>
<path opacity="0.2" d="M160.701 68.4223C160.836 68.6509 160.908 68.9051 160.91 69.1636V78.9168C160.91 79.0134 160.881 79.1081 160.827 79.1916C160.772 79.2751 160.695 79.3444 160.601 79.3927C160.508 79.4409 160.402 79.4665 160.294 79.4667C160.186 79.4669 160.08 79.4419 159.986 79.394C160.26 79.547 160.574 79.6326 160.896 79.6422C161.219 79.6517 161.538 79.5848 161.822 79.4483C162.106 79.3117 162.345 79.1104 162.515 78.8646C162.684 78.6188 162.778 78.3373 162.787 78.0486V68.3005C162.784 68.0156 162.7 67.736 162.543 67.4882L160.701 68.4223Z" fill="white"/>
<path d="M150.496 62.8375L159.981 67.7116C160.264 67.8561 160.499 68.0652 160.662 68.3176C160.826 68.57 160.911 68.8567 160.911 69.1484V78.9015C160.91 78.9981 160.881 79.0929 160.827 79.1764C160.772 79.2599 160.695 79.3292 160.601 79.3775C160.508 79.4257 160.402 79.4512 160.294 79.4515C160.186 79.4517 160.08 79.4266 159.986 79.3788L150.502 74.5251C150.219 74.3805 149.983 74.1714 149.82 73.919C149.657 73.6666 149.571 73.38 149.572 73.0882V63.3452C149.566 63.2461 149.591 63.1474 149.642 63.0596C149.694 62.9718 149.771 62.8981 149.866 62.8461C149.96 62.7942 150.069 62.766 150.18 62.7645C150.29 62.763 150.4 62.7882 150.496 62.8375Z" fill="#037ADE"/>
<path d="M163.195 74.4489L160.928 74.8297V72.2099L163.286 74.2103C163.306 74.2291 163.32 74.2524 163.326 74.2778C163.332 74.3032 163.331 74.3296 163.321 74.3542C163.312 74.3788 163.295 74.4006 163.273 74.4173C163.251 74.434 163.224 74.4449 163.195 74.4489Z" fill="#037ADE"/>
<path d="M160.916 72.2099L162.787 71.2503L165.145 73.2812C165.163 73.2967 165.176 73.3155 165.183 73.3361C165.191 73.3568 165.193 73.3788 165.19 73.4004C165.187 73.422 165.178 73.4426 165.164 73.4607C165.151 73.4787 165.133 73.4937 165.111 73.5046L163.246 74.4388L160.916 72.2099Z" fill="#037ADE"/>
<path opacity="0.2" d="M160.916 72.2099L162.787 71.2503L165.145 73.2812C165.163 73.2967 165.176 73.3155 165.183 73.3361C165.191 73.3568 165.193 73.3788 165.19 73.4004C165.187 73.422 165.178 73.4426 165.164 73.4607C165.151 73.4787 165.133 73.4937 165.111 73.5046L163.246 74.4388L160.916 72.2099Z" fill="white"/>
<path d="M154.073 73.7533C154.198 74.3103 154.557 74.8029 155.077 75.1292H155.122C155.638 75.3983 156.143 75.2663 156.205 74.8348L154.073 73.7533Z" fill="white"/>
<path d="M152.582 71.5397C152.75 71.2889 152.843 71.0042 152.854 70.7121C152.888 70.2856 152.9 69.8439 152.917 69.4073C152.951 68.5086 153.353 68.0365 154.136 67.9959C154.323 67.9959 154.362 67.9299 154.334 67.6963C154.283 67.3054 154.408 67.0718 154.703 67.0261C154.86 67.006 155.021 67.0366 155.156 67.1124C155.339 67.2098 155.495 67.3414 155.615 67.4983C155.75 67.6426 155.851 67.8093 155.913 67.9888C155.976 68.1683 155.998 68.357 155.978 68.5442C155.954 68.6365 155.96 68.733 155.994 68.8227C156.028 68.9124 156.089 68.9918 156.171 69.0519C156.761 69.6715 157.152 70.4223 157.305 71.2249C157.341 71.4911 157.358 71.759 157.356 72.0271C157.349 72.4976 157.383 72.9678 157.458 73.4335C157.535 73.9294 157.728 74.4052 158.025 74.8297C158.127 74.9565 158.181 75.1097 158.178 75.2663C158.178 75.4948 158.076 75.5506 157.843 75.4338L155.133 74.0072L152.928 72.8648L152.645 72.7176L152.355 72.5703C152.243 72.5116 152.157 72.4202 152.112 72.3114C152.021 72.1134 152.061 71.8646 152.197 71.8037C152.353 71.7539 152.488 71.6616 152.582 71.5397ZM154.68 71.4889L155.604 71.9662L155.842 69.8084L154.459 69.0925L154.68 71.4889ZM155.139 73.1898C155.536 73.3979 155.814 73.2558 155.814 72.9054C155.799 72.7066 155.73 72.5141 155.612 72.345C155.494 72.1759 155.332 72.0353 155.139 71.9357C154.742 71.7326 154.464 71.8545 154.464 72.2099C154.479 72.41 154.549 72.6038 154.666 72.7746C154.784 72.9453 154.946 73.0878 155.139 73.1898ZM155.139 67.6912C154.986 67.61 154.856 67.6912 154.856 67.8385C154.864 67.9248 154.894 68.0084 154.943 68.0831C154.992 68.1578 155.059 68.2217 155.139 68.27C155.166 68.2885 155.198 68.2994 155.232 68.3013C155.266 68.3033 155.299 68.2961 155.329 68.2809C155.358 68.2656 155.381 68.2429 155.396 68.2157C155.411 68.1884 155.416 68.1578 155.411 68.1279C155.411 68.0398 155.386 67.9532 155.337 67.8766C155.288 67.8001 155.218 67.7362 155.133 67.6912" fill="white"/>
<path d="M161.857 93.1733L152.367 88.2993C151.539 87.8728 149.572 88.4516 149.572 89.6447C149.572 89.5481 149.601 89.4533 149.656 89.3698C149.71 89.2863 149.788 89.217 149.881 89.1688C149.974 89.1205 150.08 89.095 150.188 89.0948C150.296 89.0945 150.402 89.1196 150.496 89.1674L159.981 94.0415C160.293 94.2033 160.544 94.4457 160.701 94.737L162.543 93.7978C162.382 93.5381 162.145 93.3223 161.857 93.1733Z" fill="#037ADE"/>
<path d="M160.701 94.7371C160.836 94.9656 160.908 95.2198 160.91 95.4783V105.231C160.91 105.328 160.881 105.423 160.827 105.506C160.772 105.59 160.695 105.659 160.601 105.707C160.508 105.756 160.402 105.781 160.294 105.781C160.186 105.782 160.08 105.757 159.986 105.709C160.26 105.862 160.575 105.948 160.898 105.957C161.22 105.966 161.54 105.899 161.825 105.762C162.109 105.625 162.348 105.422 162.517 105.176C162.686 104.93 162.779 104.647 162.787 104.358V94.6101C162.785 94.3251 162.701 94.0453 162.543 93.7978L160.701 94.7371Z" fill="#037ADE"/>
<path opacity="0.4" d="M161.857 93.1733L152.367 88.2993C151.539 87.8728 149.572 88.4516 149.572 89.6447C149.572 89.5481 149.601 89.4533 149.656 89.3698C149.71 89.2863 149.788 89.217 149.881 89.1688C149.974 89.1205 150.08 89.095 150.188 89.0948C150.296 89.0945 150.402 89.1196 150.496 89.1674L159.981 94.0415C160.293 94.2033 160.544 94.4457 160.701 94.737L162.543 93.7978C162.382 93.5381 162.145 93.3223 161.857 93.1733Z" fill="white"/>
<path opacity="0.2" d="M160.701 94.7371C160.836 94.9656 160.908 95.2198 160.91 95.4783V105.231C160.91 105.328 160.881 105.423 160.827 105.506C160.772 105.59 160.695 105.659 160.601 105.707C160.508 105.756 160.402 105.781 160.294 105.781C160.186 105.782 160.08 105.757 159.986 105.709C160.26 105.862 160.575 105.948 160.898 105.957C161.22 105.966 161.54 105.899 161.825 105.762C162.109 105.625 162.348 105.422 162.517 105.176C162.686 104.93 162.779 104.647 162.787 104.358V94.6101C162.785 94.3251 162.701 94.0453 162.543 93.7978L160.701 94.7371Z" fill="white"/>
<path d="M150.496 89.1674L159.981 94.0415C160.264 94.186 160.499 94.3951 160.662 94.6475C160.826 94.8999 160.911 95.1866 160.911 95.4783V105.231C160.91 105.328 160.881 105.423 160.827 105.506C160.772 105.59 160.695 105.659 160.601 105.707C160.508 105.756 160.402 105.781 160.294 105.781C160.186 105.782 160.08 105.757 159.986 105.709L150.502 100.855C150.218 100.71 149.982 100.5 149.819 100.247C149.655 99.9934 149.57 99.7057 149.572 99.4131V89.6447C149.572 89.5481 149.601 89.4533 149.656 89.3698C149.71 89.2863 149.788 89.217 149.881 89.1688C149.974 89.1205 150.08 89.095 150.188 89.0948C150.296 89.0945 150.402 89.1196 150.496 89.1674Z" fill="#037ADE"/>
<path d="M163.195 100.759L160.928 101.139V98.5195L163.286 100.52C163.306 100.539 163.32 100.562 163.326 100.587C163.332 100.613 163.331 100.639 163.321 100.664C163.312 100.688 163.295 100.71 163.273 100.727C163.251 100.744 163.224 100.755 163.195 100.759Z" fill="#037ADE"/>
<path d="M160.916 98.5195L162.787 97.5599L165.145 99.5908C165.163 99.6063 165.176 99.6251 165.183 99.6458C165.191 99.6664 165.193 99.6884 165.19 99.71C165.187 99.7316 165.178 99.7522 165.164 99.7703C165.151 99.7883 165.133 99.8034 165.111 99.8142L163.246 100.748L160.916 98.5195Z" fill="#037ADE"/>
<path opacity="0.2" d="M160.916 98.5195L162.787 97.5599L165.145 99.5908C165.163 99.6063 165.176 99.6251 165.183 99.6458C165.191 99.6664 165.193 99.6884 165.19 99.71C165.187 99.7316 165.178 99.7522 165.164 99.7703C165.151 99.7883 165.133 99.8034 165.111 99.8142L163.246 100.748L160.916 98.5195Z" fill="white"/>
<path d="M154.073 100.058C154.197 100.617 154.556 101.111 155.077 101.439H155.122C155.638 101.708 156.143 101.571 156.205 101.144L154.073 100.058Z" fill="white"/>
<path d="M152.582 97.8696C152.75 97.621 152.844 97.3377 152.854 97.0472C152.888 96.6207 152.9 96.179 152.917 95.7423C152.951 94.8386 153.353 94.3715 154.136 94.3309C154.323 94.3309 154.362 94.2649 154.334 94.0313C154.283 93.6404 154.408 93.4069 154.703 93.3612C154.86 93.3382 155.022 93.369 155.156 93.4475C155.339 93.5448 155.495 93.6765 155.615 93.8333C155.75 93.9777 155.851 94.1444 155.913 94.3239C155.976 94.5033 155.998 94.6921 155.978 94.8792C155.954 94.9715 155.959 95.068 155.994 95.1577C156.028 95.2475 156.089 95.3268 156.171 95.3869C156.761 96.0066 157.152 96.7574 157.305 97.5599C157.341 97.8261 157.358 98.094 157.356 98.3621C157.349 98.8326 157.383 99.3028 157.458 99.7685C157.535 100.264 157.728 100.74 158.025 101.165C158.127 101.291 158.181 101.445 158.178 101.601C158.178 101.83 158.076 101.886 157.843 101.769L155.105 100.352L152.9 99.21L152.616 99.0628L152.327 98.9155C152.215 98.8567 152.129 98.7654 152.083 98.6566C151.993 98.4586 152.032 98.2098 152.168 98.1489C152.338 98.1013 152.484 98.0027 152.582 97.8696ZM154.68 97.824L155.604 98.2961L155.842 96.1434L154.459 95.4275L154.68 97.824ZM155.139 99.5248C155.536 99.7279 155.814 99.5908 155.814 99.2405C155.799 99.0416 155.729 98.8492 155.612 98.68C155.494 98.5109 155.332 98.3703 155.139 98.2707C154.742 98.0626 154.464 98.1895 154.464 98.5449C154.479 98.745 154.549 98.9389 154.666 99.1096C154.784 99.2804 154.946 99.4229 155.139 99.5248ZM155.139 94.0263C154.986 93.945 154.856 94.0263 154.856 94.1684C154.863 94.2557 154.892 94.3403 154.941 94.4159C154.99 94.4915 155.058 94.5562 155.139 94.6051C155.166 94.6235 155.198 94.6344 155.232 94.6364C155.266 94.6383 155.299 94.6312 155.329 94.6159C155.358 94.6007 155.381 94.578 155.396 94.5507C155.411 94.5234 155.416 94.4929 155.411 94.4629C155.411 94.3748 155.386 94.2882 155.337 94.2116C155.288 94.1351 155.218 94.0712 155.133 94.0263" fill="white"/>
<path d="M161.857 119.483L152.367 114.624C151.539 114.198 149.572 114.776 149.572 115.97C149.572 115.873 149.601 115.778 149.656 115.695C149.71 115.611 149.788 115.542 149.881 115.494C149.974 115.445 150.08 115.42 150.188 115.42C150.296 115.419 150.402 115.444 150.496 115.492L159.981 120.366C160.293 120.528 160.544 120.771 160.701 121.062L162.543 120.123C162.384 119.857 162.147 119.636 161.857 119.483Z" fill="#037ADE"/>
<path d="M160.701 121.047C160.836 121.275 160.908 121.529 160.91 121.788V131.536C160.911 131.633 160.883 131.728 160.829 131.813C160.775 131.897 160.697 131.967 160.604 132.016C160.51 132.065 160.404 132.091 160.295 132.091C160.187 132.092 160.081 132.066 159.986 132.018C160.26 132.172 160.575 132.257 160.898 132.266C161.22 132.276 161.54 132.208 161.825 132.071C162.109 131.934 162.348 131.732 162.517 131.486C162.686 131.239 162.779 130.957 162.787 130.668V120.92C162.785 120.635 162.701 120.355 162.543 120.107L160.701 121.047Z" fill="#037ADE"/>
<path opacity="0.4" d="M161.857 119.483L152.367 114.624C151.539 114.198 149.572 114.776 149.572 115.97C149.572 115.873 149.601 115.778 149.656 115.695C149.71 115.611 149.788 115.542 149.881 115.494C149.974 115.445 150.08 115.42 150.188 115.42C150.296 115.419 150.402 115.444 150.496 115.492L159.981 120.366C160.293 120.528 160.544 120.771 160.701 121.062L162.543 120.123C162.384 119.857 162.147 119.636 161.857 119.483Z" fill="white"/>
<path opacity="0.2" d="M160.701 121.047C160.836 121.275 160.908 121.529 160.91 121.788V131.536C160.911 131.633 160.883 131.728 160.829 131.813C160.775 131.897 160.697 131.967 160.604 132.016C160.51 132.065 160.404 132.091 160.295 132.091C160.187 132.092 160.081 132.066 159.986 132.018C160.26 132.172 160.575 132.257 160.898 132.266C161.22 132.276 161.54 132.208 161.825 132.071C162.109 131.934 162.348 131.732 162.517 131.486C162.686 131.239 162.779 130.957 162.787 130.668V120.92C162.785 120.635 162.701 120.355 162.543 120.107L160.701 121.047Z" fill="white"/>
<path d="M150.496 115.477L159.981 120.351C160.264 120.496 160.499 120.705 160.662 120.957C160.826 121.21 160.911 121.496 160.911 121.788V131.536C160.911 131.633 160.883 131.728 160.829 131.813C160.775 131.897 160.697 131.967 160.604 132.016C160.51 132.065 160.404 132.091 160.295 132.091C160.187 132.091 160.081 132.066 159.986 132.018L150.502 127.165C150.218 127.019 149.983 126.809 149.819 126.556C149.656 126.303 149.571 126.015 149.572 125.723V115.954C149.572 115.858 149.601 115.763 149.656 115.679C149.71 115.596 149.788 115.527 149.881 115.478C149.974 115.43 150.08 115.405 150.188 115.404C150.296 115.404 150.402 115.429 150.496 115.477Z" fill="#037ADE"/>
<path d="M163.195 127.068L160.928 127.449V124.829L163.286 126.824C163.308 126.843 163.323 126.867 163.33 126.893C163.337 126.919 163.336 126.946 163.327 126.972C163.317 126.998 163.3 127.02 163.277 127.037C163.253 127.054 163.225 127.065 163.195 127.068Z" fill="#037ADE"/>
<path d="M160.916 124.829L162.787 123.87L165.145 125.9C165.163 125.916 165.176 125.935 165.183 125.955C165.191 125.976 165.193 125.998 165.19 126.02C165.187 126.041 165.178 126.062 165.164 126.08C165.151 126.098 165.133 126.113 165.111 126.124L163.246 127.058L160.916 124.829Z" fill="#037ADE"/>
<path opacity="0.2" d="M160.916 124.829L162.787 123.87L165.145 125.9C165.163 125.916 165.176 125.935 165.183 125.955C165.191 125.976 165.193 125.998 165.19 126.02C165.187 126.041 165.178 126.062 165.164 126.08C165.151 126.098 165.133 126.113 165.111 126.124L163.246 127.058L160.916 124.829Z" fill="white"/>
<path d="M154.073 126.368C154.195 126.925 154.555 127.419 155.077 127.743H155.122C155.638 128.007 156.143 127.875 156.205 127.449L154.073 126.368Z" fill="white"/>
<path d="M152.582 124.154C152.75 123.905 152.844 123.622 152.854 123.331C152.888 122.905 152.9 122.463 152.917 122.027C152.951 121.123 153.353 120.656 154.136 120.615C154.323 120.615 154.362 120.549 154.334 120.316C154.283 119.925 154.408 119.691 154.703 119.645C154.86 119.622 155.022 119.653 155.156 119.732C155.339 119.829 155.495 119.961 155.615 120.118C155.75 120.262 155.851 120.428 155.914 120.608C155.976 120.788 155.998 120.976 155.978 121.163C155.954 121.256 155.959 121.352 155.994 121.442C156.028 121.532 156.089 121.611 156.171 121.671C156.761 122.291 157.152 123.042 157.305 123.844C157.341 124.11 157.358 124.378 157.356 124.646C157.348 125.115 157.383 125.584 157.458 126.048C157.535 126.545 157.729 127.022 158.025 127.449C158.128 127.575 158.182 127.729 158.178 127.886C158.178 128.114 158.076 128.17 157.843 128.053L155.105 126.637L152.9 125.494L152.616 125.347L152.327 125.2C152.214 125.14 152.128 125.046 152.083 124.936C151.993 124.743 152.032 124.494 152.168 124.428C152.337 124.382 152.483 124.285 152.582 124.154ZM154.68 124.108L155.604 124.58L155.842 122.428L154.459 121.732L154.68 124.129M155.139 125.829C155.536 126.032 155.814 125.89 155.814 125.545C155.799 125.346 155.729 125.154 155.612 124.985C155.494 124.815 155.332 124.675 155.139 124.575C154.742 124.367 154.464 124.494 154.464 124.844C154.479 125.045 154.547 125.24 154.665 125.412C154.783 125.584 154.945 125.727 155.139 125.829ZM155.139 120.331C154.986 120.25 154.856 120.331 154.856 120.473C154.862 120.56 154.891 120.644 154.94 120.719C154.99 120.794 155.058 120.857 155.139 120.905C155.286 120.981 155.411 120.905 155.411 120.757C155.41 120.67 155.384 120.585 155.335 120.509C155.287 120.433 155.217 120.37 155.133 120.326" fill="white"/>
<path d="M161.857 145.793L152.367 140.919C151.539 140.487 149.572 141.066 149.572 142.264C149.571 142.167 149.599 142.071 149.652 141.987C149.706 141.902 149.784 141.832 149.878 141.784C149.972 141.735 150.079 141.71 150.188 141.71C150.296 141.711 150.403 141.737 150.496 141.787L159.981 146.661C160.293 146.823 160.544 147.065 160.701 147.356L162.543 146.417C162.383 146.156 162.146 145.94 161.857 145.793Z" fill="#037ADE"/>
<path d="M160.701 147.356C160.836 147.585 160.908 147.839 160.91 148.098V157.846C160.911 157.943 160.883 158.038 160.829 158.122C160.775 158.207 160.697 158.277 160.604 158.325C160.51 158.374 160.404 158.4 160.295 158.401C160.187 158.401 160.081 158.376 159.986 158.328C160.26 158.481 160.575 158.567 160.898 158.576C161.22 158.585 161.54 158.518 161.825 158.381C162.109 158.244 162.348 158.042 162.517 157.795C162.686 157.549 162.779 157.267 162.787 156.977V147.229C162.785 146.944 162.701 146.665 162.543 146.417L160.701 147.356Z" fill="#037ADE"/>
<path opacity="0.4" d="M161.857 145.793L152.367 140.919C151.539 140.487 149.572 141.066 149.572 142.264C149.571 142.167 149.599 142.071 149.652 141.987C149.706 141.902 149.784 141.832 149.878 141.784C149.972 141.735 150.079 141.71 150.188 141.71C150.296 141.711 150.403 141.737 150.496 141.787L159.981 146.661C160.293 146.823 160.544 147.065 160.701 147.356L162.543 146.417C162.383 146.156 162.146 145.94 161.857 145.793Z" fill="white"/>
<path opacity="0.2" d="M160.701 147.356C160.836 147.585 160.908 147.839 160.91 148.098V157.846C160.911 157.943 160.883 158.038 160.829 158.122C160.775 158.207 160.697 158.277 160.604 158.325C160.51 158.374 160.404 158.4 160.295 158.401C160.187 158.401 160.081 158.376 159.986 158.328C160.26 158.481 160.575 158.567 160.898 158.576C161.22 158.585 161.54 158.518 161.825 158.381C162.109 158.244 162.348 158.042 162.517 157.795C162.686 157.549 162.779 157.267 162.787 156.977V147.229C162.785 146.944 162.701 146.665 162.543 146.417L160.701 147.356Z" fill="white"/>
<path d="M150.496 141.787L159.981 146.661C160.264 146.805 160.499 147.014 160.662 147.267C160.826 147.519 160.911 147.806 160.911 148.098V157.846C160.911 157.943 160.883 158.038 160.829 158.122C160.775 158.206 160.697 158.277 160.604 158.325C160.51 158.374 160.404 158.4 160.295 158.401C160.187 158.401 160.081 158.376 159.986 158.328L150.502 153.474C150.218 153.329 149.983 153.119 149.819 152.866C149.656 152.612 149.571 152.325 149.572 152.032V142.264C149.571 142.167 149.599 142.071 149.652 141.987C149.706 141.902 149.784 141.832 149.878 141.784C149.972 141.735 150.079 141.71 150.188 141.71C150.296 141.711 150.403 141.737 150.496 141.787Z" fill="#037ADE"/>
<path d="M163.195 153.378L160.928 153.759V151.139L163.286 153.134C163.308 153.153 163.323 153.176 163.33 153.203C163.337 153.229 163.336 153.256 163.327 153.282C163.317 153.307 163.3 153.33 163.277 153.347C163.253 153.364 163.225 153.375 163.195 153.378Z" fill="#037ADE"/>
<path d="M160.916 151.139L162.787 150.179L165.145 152.21C165.163 152.226 165.176 152.244 165.183 152.265C165.191 152.286 165.193 152.308 165.19 152.329C165.187 152.351 165.178 152.371 165.164 152.39C165.151 152.408 165.133 152.423 165.111 152.433L163.246 153.368L160.916 151.139Z" fill="#037ADE"/>
<path opacity="0.2" d="M160.916 151.139L162.787 150.179L165.145 152.21C165.163 152.226 165.176 152.244 165.183 152.265C165.191 152.286 165.193 152.308 165.19 152.329C165.187 152.351 165.178 152.371 165.164 152.39C165.151 152.408 165.133 152.423 165.111 152.433L163.246 153.368L160.916 151.139Z" fill="white"/>
<path d="M154.073 152.703C154.195 153.261 154.555 153.754 155.077 154.078H155.122C155.638 154.342 156.143 154.21 156.205 153.779L154.073 152.703Z" fill="white"/>
<path d="M152.582 150.464C152.75 150.215 152.844 149.932 152.854 149.641C152.888 149.209 152.9 148.773 152.917 148.331C152.951 147.433 153.353 146.965 154.136 146.925C154.323 146.925 154.362 146.859 154.334 146.62C154.283 146.229 154.408 146.001 154.703 145.955C154.86 145.933 155.02 145.962 155.156 146.036C155.337 146.137 155.494 146.27 155.615 146.427C155.75 146.571 155.851 146.738 155.914 146.918C155.976 147.097 155.998 147.286 155.978 147.473C155.954 147.565 155.959 147.662 155.994 147.752C156.028 147.841 156.089 147.921 156.171 147.981C156.762 148.6 157.154 149.351 157.305 150.154C157.341 150.42 157.358 150.688 157.356 150.956C157.349 151.425 157.383 151.893 157.458 152.357C157.535 152.853 157.728 153.329 158.025 153.754C158.128 153.882 158.182 154.037 158.178 154.195C158.178 154.424 158.076 154.48 157.843 154.363L155.105 152.946L152.9 151.804L152.616 151.657L152.327 151.504C152.215 151.446 152.129 151.354 152.083 151.245C151.993 151.052 152.032 150.804 152.168 150.738C152.336 150.689 152.481 150.593 152.582 150.464ZM154.68 150.413L155.604 150.89L155.842 148.737L154.459 148.021L154.68 150.413ZM155.139 152.119C155.536 152.322 155.814 152.18 155.814 151.834C155.8 151.635 155.732 151.442 155.614 151.273C155.496 151.103 155.333 150.963 155.139 150.865C154.742 150.656 154.464 150.783 154.464 151.134C154.479 151.335 154.547 151.53 154.665 151.701C154.783 151.873 154.945 152.016 155.139 152.119ZM155.139 146.615C155.111 146.595 155.078 146.583 155.042 146.581C155.007 146.579 154.972 146.586 154.941 146.602C154.91 146.618 154.886 146.642 154.871 146.67C154.855 146.699 154.85 146.731 154.856 146.762C154.862 146.849 154.891 146.933 154.94 147.008C154.99 147.083 155.058 147.147 155.139 147.194C155.286 147.27 155.411 147.194 155.411 147.047C155.408 146.959 155.381 146.874 155.333 146.798C155.284 146.721 155.216 146.657 155.133 146.61" fill="white"/>
<path d="M146.646 165.994L145.564 155.8L143.999 141.117C143.873 139.942 143.48 138.803 142.844 137.769C142.209 136.735 141.344 135.829 140.302 135.105L106.944 111.969L105.118 105.876C105.048 105.639 104.922 105.417 104.75 105.226C104.728 105.2 104.704 105.176 104.676 105.155C102.975 103.297 100.64 101.718 97.6801 101.693H97.5214C97.3584 101.693 97.1961 101.713 97.0395 101.754C96.8764 101.792 96.72 101.85 96.5746 101.926L64.1856 118.681C63.9573 118.801 63.7394 118.937 63.5336 119.087C63.3292 119.232 63.1395 119.394 62.9667 119.569C62.8015 119.744 62.6536 119.93 62.5245 120.128C62.3937 120.325 62.2818 120.533 62.19 120.747C62.1049 120.945 62.0366 121.149 61.9859 121.356C61.9336 121.563 61.9013 121.774 61.8895 121.986C61.8725 122.196 61.8725 122.406 61.8895 122.616C61.9138 122.832 61.9574 123.045 62.0199 123.255L68.4659 144.762L65.6993 143.279L53.7936 171.579C54.2359 172.554 55.3584 172.011 55.3584 172.011L58.7997 165.543C58.9709 165.219 59.215 164.931 59.5166 164.697C59.8183 164.462 60.1709 164.286 60.5523 164.18C60.9337 164.074 61.3356 164.039 61.7326 164.079C62.1296 164.118 62.5131 164.231 62.8589 164.41L99.2449 183.201C100.232 183.709 101.081 184.407 101.731 185.245C102.381 186.082 102.816 187.038 103.004 188.044L103.469 190.502H105.736L105.629 189.486C105.489 188.169 105.775 186.843 106.452 185.666C107.13 184.49 108.17 183.513 109.45 182.85L140.903 166.634C141.245 166.458 141.628 166.359 142.022 166.344C142.415 166.329 142.806 166.399 143.163 166.549C143.52 166.698 143.831 166.922 144.07 167.202C144.309 167.482 144.47 167.81 144.537 168.157L146.238 177.189C146.481 177.329 146.769 177.393 147.056 177.37C147.344 177.347 147.614 177.239 147.826 177.063L146.646 165.994ZM137.156 138.116C137.752 138.438 138.263 138.871 138.655 139.386C139.046 139.902 139.308 140.487 139.424 141.101L141.47 151.971C141.309 151.763 141.098 151.59 140.852 151.464L114.546 137.755C114.536 137.457 114.486 137.16 114.399 136.872L110.482 123.804L137.156 138.116ZM68.517 144.929L70.1157 150.271L67.848 151.454C67.469 151.646 67.1778 151.951 67.0259 152.317C66.0848 153.87 65.7503 157.328 66.9465 159.668L66.0791 159.227C65.1461 158.753 64.4386 157.991 64.0898 157.083C63.7411 156.175 63.7751 155.184 64.1856 154.297L65.0473 152.444L68.517 144.929ZM142.457 157.404V157.231L142.485 157.379L142.457 157.404Z" fill="#455A64"/>
<path d="M97.2322 177.941L65.4385 161.288C64.4313 160.759 63.6719 159.922 63.3009 158.931C62.9298 157.94 62.9722 156.861 63.4202 155.896L65.0246 152.444L64.1629 154.297C63.7524 155.184 63.7183 156.175 64.0671 157.083C64.4159 157.991 65.1234 158.753 66.0564 159.227L100.64 176.748C100.539 177.051 100.363 177.329 100.124 177.561C99.8849 177.794 99.5899 177.975 99.2614 178.09C98.9328 178.205 98.5792 178.251 98.2276 178.225C97.8759 178.2 97.5355 178.102 97.2322 177.941Z" fill="#37474F"/>
<path d="M65.7106 143.325L68.5453 144.848L65.0189 152.464L63.4145 155.916C62.9666 156.882 62.9242 157.96 63.2952 158.951C63.6663 159.942 64.4256 160.78 65.4328 161.308L97.2266 177.961C97.5297 178.122 97.8696 178.218 98.2205 178.243C98.5715 178.269 98.9243 178.222 99.2521 178.107C99.5799 177.992 99.8742 177.812 100.113 177.58C100.351 177.348 100.527 177.07 100.628 176.768L102.896 177.91L145.564 155.8L146.941 168.746L144.702 169.046L144.537 168.167C144.47 167.82 144.309 167.493 144.07 167.213C143.831 166.933 143.52 166.708 143.163 166.559C142.806 166.409 142.415 166.339 142.021 166.354C141.628 166.369 141.245 166.468 140.903 166.644L109.45 182.85C108.166 183.512 107.122 184.49 106.443 185.669C105.763 186.847 105.476 188.176 105.617 189.496L105.725 190.512H103.457L102.992 188.055C102.804 187.049 102.37 186.092 101.72 185.255C101.07 184.417 100.221 183.719 99.2335 183.211L62.8929 164.466C62.5471 164.287 62.1636 164.174 61.7666 164.135C61.3696 164.095 60.9677 164.129 60.5863 164.236C60.2049 164.342 59.8523 164.518 59.5506 164.753C59.249 164.987 59.0049 165.275 58.8337 165.598L55.3924 172.067C55.3924 172.067 54.2585 172.61 53.8276 171.635L65.7106 143.325Z" fill="#455A64"/>
<path d="M106.139 111.405L140.302 135.105C141.344 135.829 142.208 136.735 142.844 137.769C143.48 138.803 143.873 139.942 143.999 141.117L147.826 177.073C147.614 177.249 147.344 177.357 147.056 177.38C146.769 177.403 146.481 177.34 146.238 177.2L139.435 141.101C139.32 140.487 139.057 139.902 138.666 139.386C138.275 138.871 137.763 138.438 137.167 138.116L106.972 121.91C103.015 119.803 102.323 112.355 106.139 111.405Z" fill="#455A64"/>
<path opacity="0.3" d="M106.139 111.405L140.302 135.105C141.344 135.829 142.208 136.735 142.844 137.769C143.48 138.803 143.873 139.942 143.999 141.117L147.826 177.073C147.614 177.249 147.344 177.357 147.056 177.38C146.769 177.403 146.481 177.34 146.238 177.2L139.435 141.101C139.32 140.487 139.057 139.902 138.666 139.386C138.275 138.871 137.763 138.438 137.167 138.116L106.972 121.91C103.015 119.803 102.323 112.355 106.139 111.405Z" fill="white"/>
<path d="M67.0032 152.317C67.1552 151.951 67.4463 151.646 67.8253 151.454L102.08 133.745C102.804 133.368 103.626 133.169 104.464 133.169C105.301 133.169 106.123 133.368 106.847 133.745L140.864 151.443C141.244 151.638 141.536 151.948 141.686 152.317C142.661 153.931 142.99 157.597 141.629 159.932C141.45 160.238 141.181 160.494 140.852 160.674L106.615 178.383C105.89 178.758 105.068 178.955 104.231 178.955C103.394 178.955 102.572 178.758 101.847 178.383L67.831 160.684C67.4965 160.509 67.2295 160.247 67.0656 159.932C65.6993 157.597 66.0281 153.931 67.0032 152.317Z" fill="#037ADE"/>
<path opacity="0.3" d="M67.0032 152.317C67.1552 151.951 67.4463 151.646 67.8253 151.454L102.08 133.745C102.804 133.368 103.626 133.169 104.464 133.169C105.301 133.169 106.123 133.368 106.847 133.745L140.864 151.443C141.244 151.638 141.536 151.948 141.686 152.317C142.661 153.931 142.99 157.597 141.629 159.932C141.45 160.238 141.181 160.494 140.852 160.674L106.615 178.383C105.89 178.758 105.068 178.955 104.231 178.955C103.394 178.955 102.572 178.758 101.847 178.383L67.831 160.684C67.4965 160.509 67.2295 160.247 67.0656 159.932C65.6993 157.597 66.0281 153.931 67.0032 152.317Z" fill="white"/>
<path opacity="0.3" d="M67.0032 152.317C66.8405 152.695 66.8333 153.112 66.9828 153.494C67.1324 153.877 67.429 154.199 67.8196 154.403L101.836 172.102C102.56 172.477 103.383 172.675 104.22 172.675C105.057 172.675 105.879 172.477 106.604 172.102L140.858 154.388C141.248 154.187 141.546 153.869 141.698 153.489C141.85 153.109 141.845 152.694 141.686 152.317C142.661 153.931 142.99 157.597 141.629 159.932C141.45 160.238 141.181 160.494 140.852 160.674L106.615 178.383C105.89 178.758 105.068 178.955 104.231 178.955C103.394 178.955 102.572 178.758 101.847 178.383L67.831 160.684C67.4965 160.509 67.2295 160.247 67.0656 159.932C65.6993 157.597 66.0281 153.931 67.0032 152.317Z" fill="black"/>
<path d="M64.1742 118.686L96.5632 101.931C96.8509 101.781 97.1772 101.701 97.51 101.698H97.6688C100.628 101.723 102.947 103.302 104.665 105.16C104.692 105.182 104.717 105.205 104.738 105.231C104.911 105.422 105.037 105.644 105.107 105.881L114.399 136.852C114.675 137.732 114.617 138.669 114.234 139.516C113.852 140.363 113.166 141.072 112.284 141.533L79.901 158.287C79.5579 158.465 79.1622 158.545 78.7671 158.516C75.0594 158.171 72.8766 156.119 71.7825 155.038C71.5749 154.83 71.4253 154.582 71.3459 154.312L62.0538 123.342C61.7854 122.465 61.8477 121.533 62.2311 120.691C62.6145 119.849 63.2975 119.144 64.1742 118.686Z" fill="#037ADE"/>
<path opacity="0.2" d="M64.1742 118.686L96.5632 101.931C96.8509 101.781 97.1772 101.701 97.51 101.698H97.6688C100.628 101.723 102.947 103.302 104.665 105.16C104.692 105.182 104.717 105.205 104.738 105.231C104.911 105.422 105.037 105.644 105.107 105.881L114.399 136.852C114.675 137.732 114.617 138.669 114.234 139.516C113.852 140.363 113.166 141.072 112.284 141.533L79.901 158.287C79.5579 158.465 79.1622 158.545 78.7671 158.516C75.0594 158.171 72.8766 156.119 71.7825 155.038C71.5749 154.83 71.4253 154.582 71.3459 154.312L62.0538 123.342C61.7854 122.465 61.8477 121.533 62.2311 120.691C62.6145 119.849 63.2975 119.144 64.1742 118.686Z" fill="white"/>
<path opacity="0.1" d="M64.1743 118.686L96.5633 101.931C96.851 101.781 97.1772 101.701 97.5101 101.698H97.6688C100.628 101.723 102.947 103.302 104.665 105.16C104.363 104.864 103.957 104.67 103.515 104.609C103.072 104.548 102.62 104.624 102.233 104.825L69.8436 121.58C68.9228 122.059 68.2156 122.809 67.8423 123.702L62.173 120.778C62.5533 119.896 63.2597 119.158 64.1743 118.686Z" fill="black"/>
<path opacity="0.2" d="M67.8423 123.677C67.4954 124.488 67.4457 125.377 67.7006 126.215L76.9926 157.186C77.0973 157.538 77.3215 157.852 77.6344 158.085C77.9472 158.318 78.3332 158.458 78.7388 158.485C75.031 158.14 72.8483 156.089 71.7542 155.008C71.5466 154.8 71.3969 154.551 71.3176 154.282L62.0255 123.311C61.7759 122.472 61.8295 121.583 62.1786 120.773L67.8423 123.677Z" fill="black"/>
<path d="M135.863 174.727C135.486 176.506 135.272 178.309 135.223 180.119L133.828 179.611C133.152 179.379 132.414 179.332 131.708 179.474C131.002 179.617 130.359 179.944 129.859 180.413L129.791 180.479C129.537 180.719 129.189 180.862 128.82 180.877C128.451 180.892 128.09 180.779 127.813 180.561C127.664 180.445 127.544 180.304 127.461 180.145C127.377 179.985 127.331 179.813 127.325 179.637L127.132 174.214L135.863 174.727Z" fill="#FFA8A7"/>
<path d="M130.375 194.868C133.323 197.696 138.76 200.169 142.706 197.757L142.264 198.656C138.295 201.067 132.881 198.595 129.933 195.772C126.985 192.949 128.896 190.984 126.242 188.476C125.24 187.621 124.457 186.582 123.946 185.43C124.065 185.161 124.173 184.805 124.315 184.414C124.887 185.591 125.69 186.668 126.685 187.592C129.338 190.085 127.422 192.045 130.375 194.868Z" fill="white"/>
<path d="M125.766 181.444C126.223 180.866 126.54 180.209 126.696 179.515C126.723 179.356 126.787 179.204 126.885 179.069C126.983 178.934 127.112 178.819 127.263 178.733L127.297 179.642C127.305 179.895 127.396 180.14 127.56 180.346C127.724 180.552 127.952 180.711 128.216 180.801C128.48 180.891 128.767 180.909 129.043 180.853C129.318 180.797 129.569 180.668 129.763 180.485L129.831 180.419C130.33 179.949 130.974 179.622 131.68 179.48C132.386 179.337 133.124 179.384 133.8 179.616L135.245 180.124C135.458 180.199 135.641 180.33 135.769 180.499C135.898 180.668 135.966 180.869 135.965 181.073C135.869 184.78 137.802 189.705 139.832 192.406C141.918 193.182 143.715 195.726 142.797 197.589L142.706 197.777C138.738 200.189 133.323 197.716 130.375 194.888C127.427 192.06 129.338 190.106 126.685 187.598C125.69 186.673 124.887 185.596 124.315 184.419C124.642 183.372 125.13 182.37 125.766 181.444Z" fill="#037ADE"/>
<path opacity="0.2" d="M125.766 181.444C126.223 180.866 126.54 180.209 126.696 179.515C126.723 179.356 126.787 179.204 126.885 179.069C126.983 178.934 127.112 178.819 127.263 178.733L127.297 179.642C127.305 179.895 127.396 180.14 127.56 180.346C127.724 180.552 127.952 180.711 128.216 180.801C128.48 180.891 128.767 180.909 129.043 180.853C129.318 180.797 129.569 180.668 129.763 180.485L129.831 180.419C130.33 179.949 130.974 179.622 131.68 179.48C132.386 179.337 133.124 179.384 133.8 179.616L135.245 180.124C135.458 180.199 135.641 180.33 135.769 180.499C135.898 180.668 135.966 180.869 135.965 181.073C135.869 184.78 137.802 189.705 139.832 192.406C141.918 193.182 143.715 195.726 142.797 197.589L142.706 197.777C138.738 200.189 133.323 197.716 130.375 194.888C127.427 192.06 129.338 190.106 126.685 187.598C125.69 186.673 124.887 185.596 124.315 184.419C124.642 183.372 125.13 182.37 125.766 181.444Z" fill="white"/>
<path d="M131.56 186.795C131.501 186.821 131.437 186.837 131.372 186.841C131.306 186.845 131.241 186.837 131.179 186.818C131.117 186.799 131.059 186.77 131.01 186.731C130.96 186.692 130.92 186.645 130.891 186.592C130.861 186.541 130.841 186.485 130.835 186.427C130.829 186.369 130.835 186.31 130.854 186.255C130.873 186.199 130.904 186.147 130.946 186.102C130.987 186.058 131.038 186.02 131.095 185.993C131.96 185.555 132.936 185.325 133.93 185.325C134.923 185.325 135.9 185.555 136.765 185.993C136.85 186.283 136.946 186.572 137.042 186.861C136.213 186.426 135.272 186.191 134.311 186.179C133.35 186.168 132.402 186.38 131.56 186.795Z" fill="white"/>
<path d="M130.818 184.79C130.699 184.845 130.56 184.856 130.433 184.82C130.305 184.783 130.199 184.703 130.137 184.597C130.076 184.491 130.064 184.367 130.104 184.252C130.144 184.138 130.234 184.043 130.353 183.988C131.258 183.545 132.275 183.316 133.307 183.324C134.339 183.332 135.352 183.576 136.249 184.033C136.305 184.333 136.379 184.638 136.453 184.942C134.729 184.13 132.995 183.805 130.818 184.79Z" fill="white"/>
<path d="M132.337 188.791C132.218 188.842 132.081 188.849 131.956 188.811C131.831 188.774 131.728 188.693 131.668 188.588C131.608 188.483 131.596 188.362 131.636 188.25C131.675 188.137 131.762 188.044 131.878 187.989C132.722 187.562 133.673 187.334 134.643 187.325C135.612 187.316 136.568 187.527 137.422 187.938C137.547 188.253 137.677 188.557 137.814 188.862C136.986 188.426 136.046 188.191 135.086 188.178C134.126 188.166 133.179 188.377 132.337 188.791Z" fill="white"/>
<path d="M139.832 192.385C141.918 193.162 143.715 195.706 142.797 197.569L142.706 197.757C138.817 200.133 133.493 197.757 130.511 194.995C132.995 190.634 138.188 191.72 139.832 192.385Z" fill="white"/>
<path d="M133.21 190.735C133.151 190.761 133.087 190.777 133.022 190.781C132.956 190.785 132.891 190.777 132.828 190.758C132.766 190.739 132.709 190.709 132.66 190.671C132.61 190.632 132.57 190.585 132.541 190.532C132.482 190.428 132.47 190.307 132.508 190.196C132.546 190.084 132.631 189.99 132.745 189.933C133.593 189.507 134.548 189.28 135.52 189.272C136.493 189.265 137.451 189.479 138.307 189.892C138.483 190.238 138.664 190.568 138.874 190.908C137.128 190.075 135.393 189.766 133.21 190.735Z" fill="white"/>
<path d="M142.066 185.501C142.518 187.257 143.131 188.977 143.897 190.644L142.383 190.72C141.662 190.754 140.969 190.978 140.39 191.364C139.811 191.749 139.372 192.28 139.129 192.888L139.095 192.969C138.97 193.28 138.715 193.536 138.385 193.683C138.054 193.829 137.672 193.856 137.32 193.756C137.133 193.705 136.959 193.62 136.811 193.505C136.662 193.391 136.542 193.25 136.459 193.091L133.828 188.197L142.066 185.501Z" fill="#FFA8A7"/>
<path d="M146.125 205.916C150.093 207.439 156.182 207.733 158.705 204.098V205.083C156.182 208.713 150.099 208.419 146.125 206.901C142.151 205.383 143.018 202.895 139.458 201.56C138.155 201.136 136.97 200.466 135.982 199.595C135.982 199.305 135.914 198.945 135.858 198.524C136.912 199.394 138.131 200.09 139.458 200.58C143.018 201.915 142.151 204.398 146.125 205.916Z" fill="white"/>
<path d="M135.858 195.3C136.021 194.607 136.021 193.891 135.858 193.198C135.812 193.04 135.804 192.876 135.836 192.715C135.867 192.555 135.936 192.403 136.039 192.269L136.481 193.091C136.565 193.25 136.685 193.391 136.833 193.505C136.982 193.62 137.155 193.705 137.343 193.756C137.695 193.856 138.076 193.829 138.407 193.683C138.738 193.536 138.992 193.28 139.117 192.969L139.151 192.888C139.395 192.28 139.834 191.749 140.413 191.364C140.992 190.978 141.685 190.754 142.406 190.72L143.948 190.644C144.176 190.636 144.402 190.691 144.595 190.801C144.789 190.91 144.94 191.07 145.031 191.258C146.618 194.68 150.604 198.483 153.676 200.229C155.944 200.179 158.728 201.859 158.728 203.895V204.098C156.205 207.733 150.122 207.434 146.147 205.916C142.173 204.398 143.041 201.915 139.48 200.58C138.154 200.09 136.935 199.394 135.88 198.524C135.706 197.455 135.699 196.37 135.858 195.3Z" fill="#037ADE"/>
<path opacity="0.2" d="M135.858 195.3C136.021 194.607 136.021 193.891 135.858 193.198C135.812 193.04 135.804 192.876 135.836 192.715C135.867 192.555 135.936 192.403 136.039 192.269L136.481 193.091C136.565 193.25 136.685 193.391 136.833 193.505C136.982 193.62 137.155 193.705 137.343 193.756C137.695 193.856 138.076 193.829 138.407 193.683C138.738 193.536 138.992 193.28 139.117 192.969L139.151 192.888C139.395 192.28 139.834 191.749 140.413 191.364C140.992 190.978 141.685 190.754 142.406 190.72L143.948 190.644C144.176 190.636 144.402 190.691 144.595 190.801C144.789 190.91 144.94 191.07 145.031 191.258C146.618 194.68 150.604 198.483 153.676 200.229C155.944 200.179 158.728 201.859 158.728 203.895V204.098C156.205 207.733 150.122 207.434 146.147 205.916C142.173 204.398 143.041 201.915 139.48 200.58C138.154 200.09 136.935 199.394 135.88 198.524C135.706 197.455 135.699 196.37 135.858 195.3Z" fill="white"/>
<path d="M143.551 198.107C143.467 198.201 143.344 198.261 143.211 198.273C143.078 198.286 142.944 198.251 142.839 198.176C142.735 198.1 142.668 197.991 142.654 197.871C142.639 197.752 142.679 197.632 142.763 197.539C143.361 196.829 144.153 196.27 145.063 195.914C145.972 195.559 146.968 195.419 147.956 195.508C148.166 195.746 148.381 195.975 148.602 196.203C147.648 196.102 146.681 196.224 145.796 196.558C144.91 196.892 144.137 197.426 143.551 198.107Z" fill="white"/>
<path d="M141.981 196.533C141.893 196.613 141.775 196.661 141.65 196.667C141.525 196.674 141.402 196.638 141.305 196.568C141.207 196.498 141.143 196.398 141.123 196.287C141.103 196.177 141.13 196.064 141.198 195.97C141.826 195.236 142.653 194.659 143.601 194.292C144.549 193.926 145.586 193.784 146.612 193.878C146.805 194.132 147.004 194.386 147.208 194.634C145.269 194.513 143.534 194.843 141.981 196.533Z" fill="white"/>
<path d="M145.167 199.641C145.079 199.72 144.961 199.768 144.836 199.775C144.711 199.781 144.588 199.746 144.491 199.675C144.393 199.605 144.329 199.505 144.309 199.395C144.289 199.284 144.316 199.171 144.384 199.077C144.968 198.386 145.737 197.837 146.62 197.482C147.502 197.127 148.471 196.977 149.436 197.046C149.691 197.29 149.952 197.523 150.212 197.752C149.261 197.649 148.296 197.769 147.411 198.1C146.527 198.431 145.754 198.962 145.167 199.641Z" fill="white"/>
<path d="M153.671 200.229C155.938 200.179 158.722 201.859 158.722 203.895V204.098C156.233 207.652 150.297 207.439 146.323 205.982C146.612 201.093 151.851 200.209 153.671 200.229Z" fill="white"/>
<path d="M146.867 201.108C146.782 201.196 146.662 201.252 146.532 201.263C146.402 201.274 146.272 201.239 146.17 201.166C146.068 201.093 146.001 200.988 145.985 200.872C145.968 200.756 146.002 200.638 146.079 200.544C146.665 199.851 147.436 199.301 148.322 198.946C149.208 198.591 150.18 198.442 151.148 198.513C151.465 198.767 151.777 199.021 152.095 199.229C150.139 199.087 148.404 199.412 146.867 201.108Z" fill="white"/>
<path d="M118.719 139.213L138.613 149.149C140.416 150.048 141.858 151.431 142.736 153.104C143.613 154.776 143.883 156.653 143.506 158.47L139.645 177.073L142.814 186.08C140.064 189.364 133.828 189.532 133.828 189.532C130.33 183.252 127.762 180.581 125.777 175.316C123.793 170.051 122.45 166.411 122.45 166.411L105.929 162.349C102.151 161.43 98.7674 159.517 96.2156 156.858C93.6637 154.199 92.0608 150.916 91.6139 147.432C91.3361 145.199 91.3191 143.67 91.3191 143.67L118.719 139.213Z" fill="#455A64"/>
<path d="M118.719 139.213L138.613 149.149C140.416 150.048 141.858 151.431 142.736 153.104C143.613 154.776 143.883 156.653 143.506 158.47L139.645 177.073L142.814 186.08C140.064 189.364 133.828 189.532 133.828 189.532C130.33 183.252 127.762 180.581 125.777 175.316C123.793 170.051 122.45 166.411 122.45 166.411L105.929 162.349C102.151 161.43 98.7674 159.517 96.2156 156.858C93.6637 154.199 92.0608 150.916 91.6139 147.432C91.3361 145.199 91.3191 143.67 91.3191 143.67L118.719 139.213Z" fill="#37474F"/>
<path opacity="0.2" d="M118.572 144.219C118.572 146.209 117.784 148.136 116.349 149.656L130.381 157.526C132.442 158.679 133.968 160.461 134.678 162.542L139.645 177.073L135.166 160.872C134.65 159.007 133.34 157.398 131.515 156.389L118.555 149.22C119.881 146.26 118.572 144.219 118.572 144.219Z" fill="black"/>
<path d="M116.57 108.613H117.081C120.516 108.643 124.865 110.74 126.991 116.107L135.245 130.424L125.823 134.166L120.664 120.656L116.57 108.613Z" fill="#037ADE"/>
<g opacity="0.2">
<path d="M116.57 108.613H117.081C120.516 108.643 124.865 110.74 126.991 116.107L135.245 130.424L125.823 134.166L120.664 120.656L116.57 108.613Z" fill="black"/>
</g>
<path opacity="0.2" d="M123.187 118.112C123.844 119.803 123.884 121.625 123.992 123.418C124.099 125.21 124.326 127.363 125.239 128.957C126.246 128.329 127.454 128.01 128.681 128.05C129.908 128.089 131.087 128.484 132.042 129.175C132.725 129.69 133.25 130.352 133.567 131.099L125.834 134.171L120.675 120.661L118.141 113.208C119.303 113.685 120.348 114.364 121.214 115.206C122.08 116.048 122.751 117.036 123.187 118.112Z" fill="black"/>
<path d="M125.732 131.587C126.093 130.791 126.674 130.091 127.419 129.551C128.165 129.011 129.051 128.65 129.996 128.5C130.98 128.411 131.974 128.541 132.89 128.877C133.805 129.214 134.614 129.747 135.245 130.429C136.271 131.541 136.113 133.049 135.461 134.369C134.918 135.395 133.995 136.222 132.849 136.708C131.703 137.194 130.404 137.309 129.173 137.035C126.741 136.425 124.814 133.699 125.732 131.587Z" fill="#037ADE"/>
<g opacity="0.2">
<path d="M125.732 131.587C126.093 130.791 126.674 130.091 127.419 129.551C128.165 129.011 129.051 128.65 129.996 128.5C130.98 128.411 131.974 128.541 132.89 128.877C133.805 129.214 134.614 129.747 135.245 130.429C136.271 131.541 136.113 133.049 135.461 134.369C134.918 135.395 133.995 136.222 132.849 136.708C131.703 137.194 130.404 137.309 129.173 137.035C126.741 136.425 124.814 133.699 125.732 131.587Z" fill="black"/>
</g>
<path d="M91.0016 145.087C94.5337 148.133 111.479 148.676 120.125 141.304C119.297 136.1 119.558 130.526 120.125 125.012C120.692 119.498 124.275 109.857 117.404 108.735C108.225 107.13 103.593 108.608 96.0984 110.354C89.5503 120.123 90.4517 134.745 91.0016 145.087Z" fill="#037ADE"/>
<path opacity="0.2" d="M91.0016 145.087C94.5337 148.133 111.479 148.676 120.125 141.304C119.297 136.1 119.558 130.526 120.125 125.012C120.692 119.498 124.275 109.857 117.404 108.735C108.225 107.13 103.593 108.608 96.0984 110.354C89.5503 120.123 90.4517 134.745 91.0016 145.087Z" fill="black"/>
<path opacity="0.2" d="M101.031 134.237C100.668 128.815 101.031 119.59 99.0408 116.894L93.5755 115.132C90.2192 123.453 90.412 133.739 90.8315 142.081C94.5136 143.98 98.5459 145.273 102.737 145.899C104.483 146.189 106.247 146.407 108.015 146.534C112.454 145.711 116.871 144.061 120.114 141.294C120 140.599 119.915 139.888 119.842 139.177C115.562 138.963 111.334 138.232 107.273 137.004C106.516 136.168 105.566 135.488 104.489 135.01C103.412 134.533 102.232 134.269 101.031 134.237Z" fill="black"/>
<path opacity="0.15" d="M116.009 144.721C116.009 144.721 116.009 144.721 116.009 144.696C116.009 144.671 116.009 144.696 116.009 144.665V144.64V144.61C116.009 144.61 116.009 144.61 116.009 144.579V144.554L122.177 134.273L123.028 135.141L116.86 145.422C116.82 145.48 116.794 145.543 116.78 145.61C116.774 145.629 116.773 145.649 116.778 145.669C116.783 145.689 116.793 145.707 116.809 145.721L115.958 144.858V144.818C115.958 144.818 115.958 144.792 115.958 144.782L116.009 144.721Z" fill="white"/>
<path opacity="0.2" d="M122.279 134.207V134.176V134.146V134.115V134.08V134.049V134.014L122.308 133.983V133.953V133.922V133.897L122.398 133.826H122.427H122.461H122.501H122.54H122.58L129.672 130.272H129.712H129.752H129.791H129.831H129.865H129.905H129.939H129.978H130.018H130.149C130.169 130.272 130.189 130.275 130.207 130.282C130.226 130.289 130.242 130.299 130.256 130.312L131.101 131.181C131.067 131.14 130.993 131.13 130.891 131.15C130.754 131.182 130.623 131.23 130.5 131.292L123.408 134.846C123.268 134.918 123.133 134.998 123.005 135.085C122.869 135.181 122.739 135.278 122.614 135.384C122.495 135.485 122.383 135.591 122.279 135.704C122.191 135.799 122.113 135.901 122.047 136.009L121.197 135.141L122.279 134.207Z" fill="white"/>
<path d="M125.846 138.116C125.846 138.116 121.367 140.147 119.382 139.03L120.431 137.283C117.613 137.244 114.867 138.08 112.659 139.649C108.423 138.955 104.289 137.836 100.333 136.314L98.9274 135.806L91.801 141.111C96.6597 143.929 119.581 145.859 121.962 144.544C124.343 143.229 126.169 140.619 125.846 138.116Z" fill="#FFA8A7"/>
<path d="M130.687 132.942C130.837 133.612 130.925 134.291 130.948 134.973C130.765 136.612 129.988 138.153 128.737 139.36C128.477 139.624 128.15 139.829 127.784 139.959C127.601 140.02 127.404 140.037 127.211 140.01C127.019 139.982 126.837 139.91 126.685 139.802C126.418 139.519 126.28 139.156 126.299 138.786C126.239 138.231 126.273 137.672 126.401 137.126C126.528 136.575 126.875 136.084 127.376 135.745C127.766 135.532 128.183 135.362 128.618 135.237C129.043 135.078 129.421 134.833 129.723 134.521L130.687 132.942Z" fill="#FFA8A7"/>
<path d="M98.9275 135.791L99.1429 118.63C99.172 116.311 98.5356 114.024 97.2947 111.989L96.0985 110.359C95.1445 110.445 94.2296 110.742 93.4373 111.226C92.645 111.709 92.0006 112.363 91.563 113.126C89.9057 115.676 89.1377 118.611 89.3576 121.554C89.3576 121.554 88.6036 139.243 91.8011 141.096L98.9275 135.791Z" fill="#037ADE"/>
<path d="M103.712 136.491L98.9274 135.791L91.801 141.096C93.893 142.543 98.9047 144.097 102.21 144.823C103.223 145.045 104.283 145.022 105.283 144.757L105.85 144.61L106.944 137.979C106.066 137.194 104.936 136.674 103.712 136.491Z" fill="#037ADE"/>
<g opacity="0.2">
<path d="M98.9275 135.791L99.1429 118.63C99.172 116.311 98.5356 114.024 97.2947 111.989L96.0985 110.359C95.1445 110.445 94.2296 110.742 93.4373 111.226C92.645 111.709 92.0006 112.363 91.563 113.126C89.9057 115.676 89.1377 118.611 89.3576 121.554C89.3576 121.554 88.6036 139.243 91.8011 141.096L98.9275 135.791Z" fill="black"/>
<path d="M103.712 136.491L98.9275 135.791L91.8011 141.096C93.8931 142.543 98.9048 144.097 102.21 144.823C103.223 145.045 104.283 145.022 105.283 144.757L105.85 144.61L106.944 137.979C106.066 137.194 104.936 136.674 103.712 136.491Z" fill="black"/>
</g>
<path d="M111.15 139.4C108.979 140.391 110.09 144.31 110.516 144.61L111.15 144.66C111.046 144.819 110.894 144.947 110.711 145.03C110.528 145.114 110.323 145.149 110.119 145.133C108.956 145.026 106.649 144.797 105.821 144.625C103.593 141.624 106.082 138.41 106.921 137.979C108.282 138.339 109.614 138.603 110.323 138.73C110.474 138.758 110.617 138.815 110.742 138.897C110.866 138.98 110.969 139.086 111.043 139.208L111.15 139.4Z" fill="#037ADE"/>
<path opacity="0.3" d="M111.15 139.4C108.979 140.391 110.09 144.31 110.516 144.61L111.15 144.66C111.046 144.819 110.894 144.947 110.711 145.03C110.528 145.114 110.323 145.149 110.119 145.133C108.956 145.026 106.649 144.797 105.821 144.625C103.593 141.624 106.082 138.41 106.921 137.979C108.282 138.339 109.614 138.603 110.323 138.73C110.474 138.758 110.617 138.815 110.742 138.897C110.866 138.98 110.969 139.086 111.043 139.208L111.15 139.4Z" fill="black"/>
<path d="M102.953 109.364C102.796 109.635 102.71 109.934 102.7 110.239C102.69 110.544 102.757 110.847 102.896 111.126C103.184 111.681 103.606 112.172 104.132 112.563C105.697 113.802 107.668 114.552 109.75 114.7C110.872 114.815 112.008 114.639 113.021 114.193C113.523 113.961 113.951 113.62 114.267 113.201C114.583 112.782 114.777 112.299 114.83 111.796C114.813 111.206 114.611 110.632 114.249 110.14C113.886 109.647 113.376 109.255 112.778 109.009C111.567 108.543 110.243 108.368 108.934 108.501C107.709 108.648 106.473 108.709 105.237 108.684C104.387 108.572 103.446 108.608 102.953 109.364Z" fill="#037ADE"/>
<path opacity="0.3" d="M102.953 109.364C102.796 109.635 102.71 109.934 102.7 110.239C102.69 110.544 102.757 110.847 102.896 111.126C103.184 111.681 103.606 112.172 104.132 112.563C105.697 113.802 107.668 114.552 109.75 114.7C110.872 114.815 112.008 114.639 113.021 114.193C113.523 113.961 113.951 113.62 114.267 113.201C114.583 112.782 114.777 112.299 114.83 111.796C114.813 111.206 114.611 110.632 114.249 110.14C113.886 109.647 113.376 109.255 112.778 109.009C111.567 108.543 110.243 108.368 108.934 108.501C107.709 108.648 106.473 108.709 105.237 108.684C104.387 108.572 103.446 108.608 102.953 109.364Z" fill="black"/>
<path d="M102.17 96.6054L107.165 103.206H107.29L101.96 96.179C101.96 96.179 93.4054 99.4639 94.0234 101.815C94.0373 101.844 94.0486 101.875 94.0574 101.906L94.1254 102.058C94.1233 102.073 94.1233 102.089 94.1254 102.104L94.2955 102.49C94.2623 102.423 94.2358 102.353 94.2162 102.282C93.6152 99.9005 102.17 96.6054 102.17 96.6054Z" fill="#037ADE"/>
<path opacity="0.1" d="M102.17 96.6054L107.165 103.206H107.29L101.96 96.179C101.96 96.179 93.4054 99.4639 94.0234 101.815C94.0373 101.844 94.0486 101.875 94.0574 101.906L94.1254 102.058C94.1233 102.073 94.1233 102.089 94.1254 102.104L94.2955 102.49C94.2623 102.423 94.2358 102.353 94.2162 102.282C93.6152 99.9005 102.17 96.6054 102.17 96.6054Z" fill="black"/>
<path d="M107.182 103.196L102.187 96.5953C102.187 96.5953 93.6322 99.8852 94.2501 102.231C94.2697 102.302 94.2963 102.372 94.3295 102.439C95.6561 105.282 107.511 103.622 107.511 103.622L107.182 103.196Z" fill="#037ADE"/>
<path opacity="0.3" d="M107.182 103.196L102.187 96.5953C102.187 96.5953 93.6322 99.8852 94.2501 102.231C94.2697 102.302 94.2963 102.372 94.3295 102.439C95.6561 105.282 107.511 103.622 107.511 103.622L107.182 103.196Z" fill="black"/>
<path d="M104.852 107.166C103.672 105.24 102.753 103.194 102.114 101.073C101.547 98.9308 99.9195 94.1735 101.076 92.234C101.949 90.7769 104.353 89.3045 105.969 88.5074C107.585 87.7103 109.699 87.954 111.502 87.6037C113.086 87.2525 114.724 87.1393 116.349 87.2686C117.965 87.4463 120 90.061 121.078 91.1577C122.778 92.8839 122.835 95.6103 121.61 97.6412C120.386 99.672 118.113 101.063 115.686 101.85C113.26 102.637 110.669 102.866 108.106 103.114C107.046 104.384 105.912 105.886 104.852 107.166Z" fill="#263238"/>
<path d="M118.43 86.1262C115.913 84.0954 112.109 83.6892 108.792 84.4711C105.986 85.1362 102.732 85.913 101.11 88.0251C99.4886 90.1372 100.311 93.1428 100.498 96.1485C103.426 94.055 106.894 92.6516 110.584 92.0665C111.02 91.9954 111.468 91.9446 111.922 91.904L111.7 90.919C111.636 90.6386 111.639 90.3489 111.71 90.0696C111.781 89.7904 111.918 89.528 112.112 89.3003C112.306 89.0727 112.553 88.8849 112.835 88.7499C113.117 88.6148 113.428 88.5356 113.747 88.5176C114.256 88.4923 114.765 88.5024 115.272 88.548C115.977 88.613 116.642 88.8735 117.173 89.2931C117.705 89.7127 118.077 90.2705 118.237 90.8886C118.351 91.3455 118.464 91.8075 118.572 92.2239C119.826 92.4216 121.064 92.6998 122.274 93.0565C121.446 90.584 120.579 87.8626 118.43 86.1262Z" fill="#455A64"/>
<path d="M118.158 90.6804C116.021 90.2481 113.811 90.1895 111.649 90.5078C111.648 90.646 111.663 90.7838 111.695 90.9191L111.916 91.904C114.139 91.7411 116.376 91.8487 118.566 92.2239C118.458 91.8076 118.345 91.3455 118.232 90.8886C118.209 90.8175 118.181 90.7617 118.158 90.6804Z" fill="#37474F"/>
<path d="M112.987 106.501L112.659 109.781C112.646 110.036 112.719 110.289 112.868 110.507C113.07 110.848 113.148 111.238 113.09 111.622C113.032 112.005 112.841 112.363 112.545 112.644C112.075 112.968 111.5 113.146 110.907 113.152C109.792 113.205 108.677 113.048 107.634 112.689C106.592 112.33 105.646 111.779 104.858 111.07C104.699 110.921 104.575 110.745 104.494 110.552C104.412 110.359 104.374 110.154 104.381 109.948L104.619 101.632L112.987 106.501Z" fill="#FFA8A7"/>
<path d="M112.987 106.501L112.659 109.781C112.646 110.036 112.719 110.289 112.868 110.507C113.07 110.848 113.148 111.238 113.09 111.622C113.032 112.005 112.841 112.363 112.545 112.644C112.075 112.968 111.5 113.146 110.907 113.152C109.792 113.205 108.677 113.048 107.634 112.689C106.592 112.33 105.646 111.779 104.858 111.07C104.699 110.921 104.575 110.745 104.494 110.552C104.412 110.359 104.374 110.154 104.381 109.948L104.619 101.632L112.987 106.501Z" fill="#FFA8A7"/>
<path opacity="0.2" d="M107.346 108.13C108.27 108.843 109.393 109.317 110.595 109.501C111.306 109.59 112.031 109.525 112.71 109.313L112.987 106.506L104.619 101.622L104.534 104.668C105.129 106.017 106.097 107.208 107.346 108.13Z" fill="black"/>
<path d="M116.1 96.3465C116.889 96.0143 117.554 95.4854 118.016 94.8234C116.367 95.4973 114.605 95.9194 112.8 96.0723C113.492 95.5342 114.15 94.9249 114.841 94.3867C113.605 94.7614 112.334 95.0383 111.043 95.2143C111.763 94.8832 112.404 94.4296 112.931 93.879C110.907 94.7255 108.736 95.256 106.513 95.4478C106.414 95.5673 106.35 95.7068 106.326 95.854L105.986 98.2149C105.99 98.3828 105.951 98.5493 105.874 98.7022C105.796 98.8551 105.682 98.9904 105.538 99.0983C105.382 99.1638 105.208 99.1858 105.038 99.1613C104.868 99.1369 104.71 99.0671 104.585 98.9612C104.341 98.7424 104.148 98.4817 104.018 98.1946C103.743 97.5991 103.375 97.0418 102.924 96.5394C102.696 96.2896 102.41 96.0865 102.086 95.9437C101.762 95.801 101.408 95.7219 101.048 95.7119C99.8742 95.7372 98.9784 96.7882 98.8537 97.8341C98.7963 98.3746 98.8901 98.9194 99.1267 99.4193C99.3632 99.9193 99.7351 100.359 100.209 100.698C100.697 101.008 101.264 101.204 101.858 101.267C102.452 101.331 103.054 101.261 103.61 101.063C103.077 102.886 104.143 104.841 105.725 106.079C107.307 107.318 109.336 107.988 111.315 108.618C112.398 108.968 113.543 109.324 114.671 109.126C115.591 108.94 116.415 108.484 117.013 107.831C117.607 107.181 118.093 106.457 118.458 105.683C120.243 102.232 121.26 98.5015 121.452 94.7015C119.943 95.8017 118.045 96.3848 116.1 96.3465Z" fill="#FFA8A7"/>
<path d="M114.626 100.063L116.281 103.982L113.384 104.013L114.626 100.063Z" fill="#F28F8F"/>
<path d="M110.175 104.769L113.214 105.891C112.981 106.206 112.641 106.443 112.244 106.569C111.847 106.694 111.416 106.701 111.014 106.587C110.272 106.333 110.017 105.485 110.175 104.769Z" fill="#F28F8F"/>
<path opacity="0.3" d="M110.175 104.769L113.214 105.891C112.981 106.206 112.641 106.443 112.244 106.569C111.847 106.694 111.416 106.701 111.014 106.587C110.272 106.333 110.017 105.485 110.175 104.769Z" fill="black"/>
<path d="M112.046 106.618C111.707 106.699 111.347 106.689 111.014 106.587C110.735 106.465 110.502 106.271 110.345 106.031C110.188 105.791 110.113 105.515 110.13 105.237C110.586 105.204 111.038 105.329 111.395 105.586C111.751 105.843 111.984 106.212 112.046 106.618Z" fill="#F28F8F"/>
<path d="M110.533 99.3471C110.474 99.5342 110.501 99.7346 110.607 99.9041C110.713 100.074 110.89 100.198 111.099 100.251C111.308 100.303 111.532 100.279 111.721 100.184C111.911 100.089 112.05 99.9302 112.109 99.7431C112.138 99.6504 112.146 99.5535 112.133 99.4579C112.12 99.3624 112.087 99.27 112.034 99.1861C111.981 99.1021 111.911 99.0283 111.826 98.9688C111.742 98.9093 111.645 98.8653 111.542 98.8393C111.438 98.8133 111.33 98.8058 111.223 98.8173C111.117 98.8287 111.013 98.8589 110.92 98.906C110.826 98.9532 110.744 99.0164 110.677 99.0921C110.611 99.1677 110.562 99.2544 110.533 99.3471Z" fill="#263238"/>
<path d="M117.064 100.571C117.005 100.758 117.032 100.958 117.138 101.128C117.244 101.297 117.422 101.422 117.631 101.474C117.84 101.527 118.063 101.503 118.253 101.408C118.442 101.312 118.581 101.154 118.64 100.967C118.669 100.874 118.677 100.777 118.664 100.682C118.652 100.586 118.618 100.494 118.565 100.41C118.513 100.326 118.442 100.252 118.358 100.192C118.273 100.133 118.176 100.089 118.073 100.063C117.969 100.037 117.861 100.029 117.754 100.041C117.648 100.052 117.545 100.082 117.451 100.13C117.357 100.177 117.275 100.24 117.208 100.316C117.142 100.391 117.093 100.478 117.064 100.571Z" fill="#263238"/>
<path d="M118.844 96.9608L120.25 98.484C120.39 98.3105 120.466 98.1017 120.466 97.8874C120.466 97.6731 120.39 97.4643 120.25 97.2908C120.073 97.1234 119.848 97.0037 119.6 96.9454C119.351 96.887 119.089 96.8924 118.844 96.9608Z" fill="#263238"/>
<path d="M111.604 95.7525L109.518 96.3973C109.499 96.185 109.555 95.9727 109.678 95.7905C109.801 95.6082 109.985 95.4653 110.204 95.3819C110.453 95.3199 110.716 95.3218 110.963 95.3874C111.211 95.4529 111.433 95.5794 111.604 95.7525Z" fill="#263238"/>
<path d="M64.8886 132.821L99.0465 156.521C100.089 157.243 100.955 158.149 101.591 159.183C102.226 160.217 102.619 161.357 102.743 162.532L106.575 198.488C106.364 198.664 106.093 198.772 105.806 198.795C105.519 198.818 105.231 198.755 104.988 198.615L98.1848 162.517C98.0707 161.901 97.8089 161.315 97.4174 160.799C97.0259 160.282 96.514 159.848 95.917 159.526L65.722 143.325C61.7648 141.218 61.0675 133.77 64.8886 132.821Z" fill="#455A64"/>
<path opacity="0.3" d="M64.8886 132.821L99.0465 156.521C100.089 157.243 100.955 158.149 101.591 159.183C102.226 160.217 102.619 161.357 102.743 162.532L106.575 198.488C106.364 198.664 106.093 198.772 105.806 198.795C105.519 198.818 105.231 198.755 104.988 198.615L98.1848 162.517C98.0707 161.901 97.8089 161.315 97.4174 160.799C97.0259 160.282 96.514 159.848 95.917 159.526L65.722 143.325C61.7648 141.218 61.0675 133.77 64.8886 132.821Z" fill="white"/>
<path d="M116.009 144.752C116.009 144.752 116.009 144.777 116.009 144.787V144.828L116.86 145.691C116.86 145.691 116.86 145.655 116.86 145.635C116.894 145.767 117.109 145.762 117.478 145.579L124.57 142.025C125.118 141.74 125.585 141.344 125.931 140.868L132.127 130.571C132.224 130.399 132.224 130.297 132.127 130.252H132.156L131.311 129.383C131.297 129.37 131.28 129.36 131.262 129.353C131.243 129.346 131.223 129.343 131.203 129.343H131.073H131.033H130.993H130.959H130.92H130.886H130.846H130.806H130.767H130.727L123.635 132.897H123.595H123.555H123.515H123.481H123.453L123.362 132.968V132.993V133.024V133.054L123.334 133.085V133.12V133.151V133.186V133.217V133.247V133.277V133.308L117.166 143.589V143.614C117.166 143.614 117.166 143.614 117.166 143.645V143.675V143.701C117.166 143.701 117.166 143.701 117.166 143.731C117.166 143.762 117.166 143.731 117.166 143.757V143.797L116.009 144.752ZM131.923 130.236H131.951C131.951 130.236 131.98 130.236 132.002 130.236C131.976 130.231 131.949 130.231 131.923 130.236ZM116.86 145.595C116.873 145.528 116.9 145.464 116.939 145.407C116.897 145.471 116.87 145.541 116.86 145.615V145.595Z" fill="#455A64"/>
<path d="M74.3677 194.858L76.7886 196.117L76.7772 193.614L74.3677 194.858Z" fill="#E6E6E6"/>
<path d="M76.6809 169.32L53.1644 181.475L76.6809 169.32Z" fill="#CFCFCF"/>
<path d="M76.7772 193.614V196.117L79.2944 194.817L79.2094 165.395L50.6188 180.18L50.7095 209.597L53.2267 208.297V205.794L74.3678 194.843L76.7772 193.614ZM53.1644 181.475L76.6809 169.32L76.7092 178.86L53.1984 191.045L53.1644 181.475ZM53.2041 193.629L76.7206 181.469V181.5V191.014L53.2324 203.169L53.2041 193.629Z" fill="#E0E0E0"/>
<path d="M76.7489 191.014L76.7205 181.5V181.475L53.204 193.629L53.2324 203.169L76.7489 191.014Z" fill="#E0E0E0"/>
<path d="M76.7092 178.86L76.6809 169.32L53.1644 181.475L53.1984 191.02L76.7092 178.86Z" fill="#E0E0E0"/>
<path d="M50.6188 180.18L25.6566 167.188L25.7473 196.609L50.7095 209.597L50.6188 180.18Z" fill="#E0E0E0"/>
<path d="M50.6188 180.18L79.2094 165.395L54.2472 152.403L25.6566 167.188L50.6188 180.18Z" fill="#E0E0E0"/>
<path opacity="0.2" d="M74.3677 194.858L76.7886 196.117L76.7772 193.614L74.3677 194.858Z" fill="white"/>
<path d="M76.6809 169.32L53.1644 181.475L76.6809 169.32Z" fill="#CFCFCF"/>
<path opacity="0.8" d="M76.7489 191.014L76.7205 181.5V181.475L53.204 193.629L53.2324 203.169L76.7489 191.014Z" fill="white"/>
<path opacity="0.8" d="M76.7092 178.86L76.6809 169.32L53.1644 181.475L53.1984 191.02L76.7092 178.86Z" fill="white"/>
<path d="M69.0159 176.829L69.0045 175.514L60.8633 179.723L60.869 181.043L69.0159 176.829Z" fill="#E0E0E0"/>
<path d="M69.0159 188.816L69.0045 187.496L60.8633 191.705L60.869 193.025L69.0159 188.816Z" fill="#E0E0E0"/>
<path opacity="0.2" d="M50.6188 180.18L25.6566 167.188L25.7473 196.609L50.7095 209.597L50.6188 180.18Z" fill="white"/>
<path opacity="0.4" d="M50.6188 180.18L79.2094 165.395L54.2472 152.403L25.6566 167.188L50.6188 180.18Z" fill="white"/>
<path opacity="0.05" d="M45.0742 159.993C48.2491 158.348 53.3798 158.348 56.532 159.993C59.6842 161.638 59.6671 164.294 56.4923 165.939C53.3175 167.584 48.1867 167.578 45.0345 165.939C41.8824 164.299 41.8994 161.633 45.0742 159.993Z" fill="black"/>
<path d="M42.3189 149.656L51.027 149.885L59.7408 149.656C60.115 154.926 58.9641 160.293 57.3824 162.918C57.0146 163.59 56.4194 164.14 55.6816 164.492C53.1134 165.822 48.9577 165.822 46.4065 164.492C45.655 164.138 45.0566 163.57 44.7057 162.877C43.0843 160.242 41.9447 154.906 42.3189 149.656Z" fill="white"/>
<path d="M44.8928 146.468C41.4912 148.235 41.4572 151.093 44.8474 152.86C48.2377 154.627 53.754 154.622 57.1669 152.86C60.5799 151.098 60.5686 148.235 57.2066 146.468C53.8447 144.701 48.3057 144.706 44.8928 146.468Z" fill="#EBEBEB"/>
<path d="M46.2421 147.168C43.5775 148.549 43.5662 150.778 46.2081 152.154C48.85 153.53 53.1587 153.53 55.846 152.154C58.5333 150.778 58.5219 148.549 55.88 147.168C53.2381 145.788 48.901 145.793 46.2421 147.168Z" fill="#E0E0E0"/>
<g opacity="0.15">
<path d="M46.2421 147.168C43.5775 148.549 43.5662 150.778 46.2081 152.154C48.85 153.53 53.1587 153.53 55.846 152.154C58.5333 150.778 58.5219 148.549 55.88 147.168C53.2381 145.788 48.901 145.793 46.2421 147.168Z" fill="black"/>
</g>
<path d="M51.7583 149.885C51.0598 150.406 50.2334 150.773 49.3466 150.953C48.4598 151.134 47.5378 151.125 46.6559 150.926C45.8059 150.693 45.0339 150.275 44.4094 149.708C43.7849 149.142 43.3276 148.445 43.0786 147.681C44.1096 147.243 45.0537 146.656 45.8736 145.945C44.5639 145.65 43.1878 145.694 41.905 146.072C41.5503 145.573 41.3375 145.004 41.2851 144.415C41.2328 143.825 41.3424 143.233 41.6045 142.69C43.091 142.098 44.7632 141.994 46.3271 142.396C45.6783 141.889 44.9192 141.507 44.0976 141.276C43.276 141.044 42.4098 140.967 41.5535 141.051C41.4262 138.814 41.8121 136.578 42.6874 134.481C45.9359 134.633 49.0824 135.882 50.1482 136.786C50.1949 137.827 50.0726 138.868 49.7854 139.878C50.2047 139.685 50.5628 139.401 50.8265 139.051C51.0901 138.701 51.2508 138.298 51.2935 137.877C53.3288 138.334 54.1962 139.243 54.5137 139.934C54.2219 141.227 53.5596 142.431 52.5917 143.427C54.4966 142.919 55.2733 141.005 55.2733 141.005C57.1612 144.985 56.8041 149.494 51.7583 149.885Z" fill="#037ADE"/>
<path opacity="0.2" d="M51.7583 149.885C51.0598 150.406 50.2334 150.773 49.3466 150.953C48.4598 151.134 47.5378 151.125 46.6559 150.926C45.8059 150.693 45.0339 150.275 44.4094 149.708C43.7849 149.142 43.3276 148.445 43.0786 147.681C44.1096 147.243 45.0537 146.656 45.8736 145.945C44.5639 145.65 43.1878 145.694 41.905 146.072C41.5503 145.573 41.3375 145.004 41.2851 144.415C41.2328 143.825 41.3424 143.233 41.6045 142.69C43.091 142.098 44.7632 141.994 46.3271 142.396C45.6783 141.889 44.9192 141.507 44.0976 141.276C43.276 141.044 42.4098 140.967 41.5535 141.051C41.4262 138.814 41.8121 136.578 42.6874 134.481C45.9359 134.633 49.0824 135.882 50.1482 136.786C50.1949 137.827 50.0726 138.868 49.7854 139.878C50.2047 139.685 50.5628 139.401 50.8265 139.051C51.0901 138.701 51.2508 138.298 51.2935 137.877C53.3288 138.334 54.1962 139.243 54.5137 139.934C54.2219 141.227 53.5596 142.431 52.5917 143.427C54.4966 142.919 55.2733 141.005 55.2733 141.005C57.1612 144.985 56.8041 149.494 51.7583 149.885Z" fill="black"/>
<path opacity="0.3" d="M51.7583 149.885C51.0598 150.406 50.2334 150.773 49.3466 150.953C48.4598 151.134 47.5378 151.125 46.6559 150.926C45.8059 150.693 45.0339 150.275 44.4094 149.708C43.7849 149.142 43.3276 148.445 43.0786 147.681C44.1096 147.243 45.0537 146.656 45.8736 145.945C44.5639 145.65 43.1878 145.694 41.905 146.072C41.5503 145.573 41.3375 145.004 41.2851 144.415C41.2328 143.825 41.3424 143.233 41.6045 142.69C43.091 142.098 44.7632 141.994 46.3271 142.396C45.6783 141.889 44.9192 141.507 44.0976 141.276C43.276 141.044 42.4098 140.967 41.5535 141.051C41.4262 138.814 41.8121 136.578 42.6874 134.481C45.9359 134.633 49.0824 135.882 50.1482 136.786C50.1949 137.827 50.0726 138.868 49.7854 139.878C50.2047 139.685 50.5628 139.401 50.8265 139.051C51.0901 138.701 51.2508 138.298 51.2935 137.877C53.3288 138.334 54.1962 139.243 54.5137 139.934C54.2219 141.227 53.5596 142.431 52.5917 143.427C54.4966 142.919 55.2733 141.005 55.2733 141.005C57.1612 144.985 56.8041 149.494 51.7583 149.885Z" fill="white"/>
<path d="M51.8717 150.316C51.9213 150.311 51.967 150.29 51.9996 150.256C52.0321 150.222 52.0492 150.178 52.0475 150.134C51.7357 146.463 49.3886 140.401 43.7929 135.41C43.776 135.394 43.7557 135.382 43.7333 135.373C43.7109 135.365 43.6868 135.36 43.6625 135.36C43.6382 135.36 43.6141 135.365 43.5917 135.373C43.5693 135.382 43.549 135.394 43.5321 135.41C43.5145 135.425 43.5004 135.444 43.4909 135.465C43.4813 135.485 43.4764 135.507 43.4764 135.529C43.4764 135.551 43.4813 135.573 43.4909 135.594C43.5004 135.614 43.5145 135.633 43.5321 135.648C49.0541 140.583 51.3672 146.554 51.6733 150.169C51.6755 150.19 51.6823 150.211 51.6934 150.23C51.7046 150.249 51.7198 150.266 51.7383 150.28C51.7567 150.293 51.778 150.304 51.8009 150.31C51.8238 150.316 51.8479 150.318 51.8717 150.316Z" fill="#F5F5F5"/>
<path d="M50.3354 151.85C50.9866 152.326 51.7545 152.658 52.5764 152.818C53.3983 152.978 54.2508 152.962 55.0642 152.77C55.8776 152.578 56.6288 152.217 57.2564 151.716C57.884 151.214 58.3701 150.587 58.675 149.885C57.7433 149.509 56.89 148.994 56.1521 148.362C57.3874 148.098 58.6787 148.133 59.8939 148.463C60.2612 148.042 60.502 147.544 60.5933 147.016C60.6846 146.488 60.6234 145.948 60.4155 145.447C59.0012 144.926 57.433 144.842 55.9594 145.209C57.2709 144.291 58.9217 143.852 60.5799 143.98C60.8636 142.008 60.6505 140.004 59.9563 138.116C56.8608 138.283 53.7993 139.431 52.7335 140.243C52.6143 141.159 52.6564 142.086 52.8582 142.99C52.4847 142.829 52.1677 142.579 51.9418 142.267C51.7159 141.955 51.5897 141.594 51.577 141.223C49.638 141.645 48.7423 142.457 48.4191 143.071C48.6024 144.211 49.1453 145.28 49.9839 146.153C49.4403 145.976 48.9484 145.692 48.545 145.321C48.1415 144.95 47.8368 144.502 47.6538 144.01C45.6185 147.539 45.6525 151.509 50.3354 151.85Z" fill="#037ADE"/>
<path opacity="0.3" d="M50.3354 151.85C50.9866 152.326 51.7545 152.658 52.5764 152.818C53.3983 152.978 54.2508 152.962 55.0642 152.77C55.8776 152.578 56.6288 152.217 57.2564 151.716C57.884 151.214 58.3701 150.587 58.675 149.885C57.7433 149.509 56.89 148.994 56.1521 148.362C57.3874 148.098 58.6787 148.133 59.8939 148.463C60.2612 148.042 60.502 147.544 60.5933 147.016C60.6846 146.488 60.6234 145.948 60.4155 145.447C59.0012 144.926 57.433 144.842 55.9594 145.209C57.2709 144.291 58.9217 143.852 60.5799 143.98C60.8636 142.008 60.6505 140.004 59.9563 138.116C56.8608 138.283 53.7993 139.431 52.7335 140.243C52.6143 141.159 52.6564 142.086 52.8582 142.99C52.4847 142.829 52.1677 142.579 51.9418 142.267C51.7159 141.955 51.5897 141.594 51.577 141.223C49.638 141.645 48.7423 142.457 48.4191 143.071C48.6024 144.211 49.1453 145.28 49.9839 146.153C49.4403 145.976 48.9484 145.692 48.545 145.321C48.1415 144.95 47.8368 144.502 47.6538 144.01C45.6185 147.539 45.6525 151.509 50.3354 151.85Z" fill="white"/>
<path d="M50.2106 152.251C50.2554 152.25 50.2985 152.236 50.3327 152.21C50.3668 152.184 50.3898 152.148 50.3977 152.108C50.9306 148.91 53.5215 143.599 59.0832 139.167C59.1008 139.151 59.1148 139.133 59.1244 139.112C59.134 139.092 59.1389 139.07 59.1389 139.048C59.1389 139.025 59.134 139.003 59.1244 138.983C59.1148 138.962 59.1008 138.944 59.0832 138.928C59.0662 138.913 59.046 138.9 59.0236 138.892C59.0012 138.883 58.9771 138.879 58.9528 138.879C58.9284 138.879 58.9043 138.883 58.8819 138.892C58.8595 138.9 58.8393 138.913 58.8224 138.928C53.187 143.427 50.5564 148.819 50.0122 152.073C50.0057 152.117 50.0187 152.161 50.0485 152.196C50.0782 152.231 50.1222 152.255 50.1709 152.261L50.2106 152.251Z" fill="white"/>
<path d="M113.583 40.5692L90.7181 52.2466C90.2029 52.5177 89.7752 52.904 89.477 53.3678C89.1789 53.8315 89.0204 54.3567 89.0173 54.8918V74.1036C89.0322 74.6344 89.2036 75.1522 89.5141 75.6045C89.8246 76.0569 90.2631 76.4276 90.7852 76.6792C91.3073 76.9307 91.8944 77.0542 92.487 77.037C93.0796 77.0198 93.6565 76.8626 94.1594 76.5813L100.679 73.2913L100.951 73.6873C100.964 73.7017 100.979 73.7138 100.997 73.7228H101.031C101.53 74.0173 102.408 74.4438 102.607 74.5301C102.653 74.5432 102.702 74.54 102.746 74.5211C102.789 74.5022 102.822 74.469 102.839 74.4286L103.973 71.5905L117.013 64.9039C117.532 64.6355 117.962 64.249 118.261 63.7836C118.56 63.3182 118.716 62.7904 118.713 62.2536V43.0367C118.73 40.8485 115.119 39.7823 113.583 40.5692Z" fill="#037ADE"/>
<path opacity="0.2" d="M100.946 73.7076C100.958 73.722 100.973 73.7341 100.991 73.7432H101.025C101.524 74.0376 102.403 74.4641 102.601 74.5504C102.578 74.5461 102.556 74.5375 102.536 74.5253C102.517 74.5131 102.5 74.4974 102.488 74.4793L101.411 72.9105L101.62 72.8039L100.674 73.3116L100.946 73.7076Z" fill="white"/>
<path opacity="0.4" d="M92.8385 55.1406C93.0594 54.7483 93.3705 54.4022 93.7512 54.1251C93.8814 54.0307 94.0198 53.9459 94.1651 53.8713L117.024 42.1939C117.197 42.1046 117.393 42.0577 117.592 42.0579C117.791 42.058 117.987 42.1053 118.16 42.1949C118.332 42.2845 118.475 42.4133 118.575 42.5682C118.674 42.7231 118.726 42.8987 118.725 43.0773C118.725 40.8789 115.108 39.8127 113.577 40.5997L90.7124 52.2771C90.1816 52.5509 89.7445 52.9494 89.4482 53.4296L92.8385 55.1406Z" fill="white"/>
<path opacity="0.2" d="M92.4416 75.7232V56.5114C92.433 56.3914 92.433 56.271 92.4416 56.1509C92.4987 55.7974 92.6193 55.4545 92.7988 55.1355L89.3972 53.4144C89.109 53.8696 88.9567 54.3837 88.955 54.907V74.1189C88.9699 74.6496 89.1413 75.1674 89.4518 75.6198C89.7622 76.0721 90.2008 76.4428 90.7229 76.6944C91.245 76.946 91.8321 77.0694 92.4247 77.0522C93.0173 77.035 93.5942 76.8778 94.0971 76.5965C93.9266 76.6757 93.7365 76.7148 93.5445 76.7101C93.3525 76.7055 93.165 76.6573 92.9996 76.57C92.8341 76.4827 92.6961 76.3592 92.5985 76.2111C92.5009 76.063 92.4469 75.8951 92.4416 75.7232Z" fill="white"/>
<path d="M108.758 65.2339C108.713 66.1478 107.624 67.6557 106.558 68.2396L106.468 68.2903C105.334 68.8742 104.24 68.5848 104.098 67.6455L108.758 65.2339Z" fill="white"/>
<path d="M112.851 61.0148C113.14 61.1113 113.231 61.6545 113.033 62.0861C112.933 62.3218 112.747 62.5204 112.505 62.6496L111.876 62.9796L111.247 63.3046L106.428 65.7924L100.447 68.8894C99.9478 69.1433 99.7381 69.0214 99.7154 68.5239C99.7101 68.1795 99.8294 67.8428 100.056 67.5643C100.707 66.6389 101.134 65.6009 101.308 64.518C101.471 63.5092 101.546 62.4909 101.535 61.4717C101.521 60.8846 101.557 60.2973 101.643 59.7151C101.983 57.9547 102.858 56.3122 104.171 54.9679C104.34 54.8346 104.467 54.6645 104.541 54.4741C104.614 54.2838 104.632 54.0796 104.591 53.8814C104.565 53.2661 104.715 52.655 105.028 52.1065C105.34 51.5581 105.805 51.0906 106.377 50.7489C106.674 50.5815 107.028 50.5149 107.375 50.561C108.021 50.6676 108.293 51.1703 108.18 52.0232C108.112 52.5309 108.18 52.6579 108.616 52.6782C110.317 52.7696 111.207 53.7951 111.275 55.76C111.309 56.7196 111.332 57.6791 111.406 58.6133C111.431 59.2502 111.638 59.8706 112.007 60.4157C112.208 60.6921 112.505 60.9024 112.851 61.0148ZM107.426 60.2989L107.913 55.0695L104.914 56.6231L105.43 61.3296L107.443 60.3142M106.445 64.0306C106.866 63.8074 107.221 63.4958 107.478 63.1225C107.734 62.7492 107.886 62.3255 107.919 61.8881C107.919 61.1163 107.312 60.8422 106.439 61.294C106.018 61.5119 105.662 61.8196 105.405 62.1898C105.148 62.56 104.997 62.9813 104.965 63.4163C104.965 64.1728 105.577 64.4825 106.445 64.0306ZM106.405 52.0181C106.227 52.122 106.078 52.2621 105.972 52.4271C105.866 52.5921 105.804 52.7773 105.793 52.9676C105.793 53.3128 106.065 53.4499 106.4 53.2823C106.577 53.179 106.725 53.0397 106.832 52.8756C106.938 52.7116 107 52.5274 107.012 52.338C107.012 51.9877 106.74 51.8303 106.4 52.0181" fill="white"/>
</svg>
